<?xml version="1.0" encoding="UTF-8"?>
<svg id="Layer_1" xmlns="http://www.w3.org/2000/svg" version="1.1" viewBox="0 0 512 512">
  <!-- Generator: Adobe Illustrator 29.4.0, SVG Export Plug-In . SVG Version: 2.1.0 Build 152)  -->
  <defs>
    <style>
      .st0 {
        fill: #fff;
      }
    </style>
  </defs>
  <path class="st0" d="M437,0H75C33.6,0,0,33.6,0,75v362c0,41.4,33.6,75,75,75h362c41.4,0,75-33.6,75-75V75c0-41.4-33.6-75-75-75ZM257,390c-74.4,0-135-60.6-135-135s60.6-135,135-135,135,60.6,135,135-60.6,135-135,135ZM407,150c-24.8,0-45-20.2-45-45s20.2-45,45-45,45,20.2,45,45-20.2,45-45,45Z"/>
  <path class="st0" d="M407,90c-8.3,0-15,6.7-15,15s6.7,15,15,15,15-6.7,15-15-6.7-15-15-15Z"/>
  <path class="st0" d="M257,150c-57.9,0-105,47.1-105,105s47.1,105,105,105,105-47.1,105-105-47.1-105-105-105Z"/>
</svg>