<?xml version="1.0" encoding="UTF-8"?>
<svg id="Layer_1" data-name="Layer 1" xmlns="http://www.w3.org/2000/svg" viewBox="0 0 512 512">
  <defs>
    <style>
      .cls-1 {
        fill: #fff;
      }

      .cls-2 {
        fill: #b22222;
      }
    </style>
  </defs>
  <path class="cls-1" d="M256,0C115.4,0,0,115.4,0,256s115.4,256,256,256,256-115.4,256-256S396.6,0,256,0Z"/>
  <g>
    <path d="M353.22,118.5h-194.43c-22.24,0-40.28,18.05-40.28,40.28v194.43c0,22.24,18.05,40.28,40.28,40.28h194.43c22.24,0,40.28-18.05,40.28-40.28v-194.43c0-22.24-18.05-40.28-40.28-40.28ZM256.54,327.97c-39.96,0-72.51-32.55-72.51-72.51s32.55-72.51,72.51-72.51,72.51,32.55,72.51,72.51-32.55,72.51-72.51,72.51ZM337.1,199.07c-13.32,0-24.17-10.85-24.17-24.17s10.85-24.17,24.17-24.17,24.17,10.85,24.17,24.17-10.85,24.17-24.17,24.17Z"/>
    <path class="cls-1" d="M256,247.94c-4.46,0-8.06,3.6-8.06,8.06s3.6,8.06,8.06,8.06,8.06-3.6,8.06-8.06-3.6-8.06-8.06-8.06Z"/>
    <path class="cls-2" d="M256,199.6c-31.1,0-56.4,25.3-56.4,56.4s25.3,56.4,56.4,56.4,56.4-25.3,56.4-56.4-25.3-56.4-56.4-56.4Z"/>
  </g>
</svg>