<?xml version="1.0" encoding="UTF-8"?>
<svg id="Layer_1" data-name="Layer 1" xmlns="http://www.w3.org/2000/svg" viewBox="0 0 512 512">
  <defs>
    <style>
      .cls-1 {
        fill: #fff;
      }
    </style>
  </defs>
  <path class="cls-1" d="M256,0C115.4,0,0,115.4,0,256s115.4,256,256,256,256-115.4,256-256S396.6,0,256,0Z"/>
  <g id="UYsNRp.tif">
    <g>
      <path class="cls-1" d="M236.64,106l-.04,70.59-47.72-49.29-29.61,29.88,49.21,47.65h-70.39v42.35h70.39l-49.01,48.14,29.17,29.25,67.84-66.55,72.95,66.55,26.63-29.26-49.02-48.1,70.39-.04v158.82h-242.86V106h102.07ZM236.64,303.65v98.82h42.24v-98.82h-42.24Z"/>
      <polygon points="278.88 106 278.91 176.59 326.44 127.21 356.25 157.18 307.04 204.79 377.43 204.82 377.43 247.18 307.04 247.21 356.05 295.31 329.43 324.57 256.48 258.02 188.64 324.57 159.47 295.32 208.48 247.18 138.09 247.18 138.09 204.82 208.48 204.82 159.27 157.18 188.88 127.3 236.61 176.59 236.64 106 278.88 106"/>
      <polygon class="cls-1" points="278.88 106 377.43 106 377.43 204.82 307.04 204.79 356.25 157.18 326.44 127.21 278.91 176.59 278.88 106"/>
      <rect x="236.64" y="303.65" width="42.24" height="98.82"/>
    </g>
  </g>
</svg>