<?xml version="1.0" encoding="UTF-8"?>
<svg id="Layer_1" xmlns="http://www.w3.org/2000/svg" version="1.1" viewBox="0 0 512 512">
  <!-- Generator: Adobe Illustrator 29.4.0, SVG Export Plug-In . SVG Version: 2.1.0 Build 152)  -->
  <defs>
    <style>
      .st0 {
        fill: #fff;
      }
    </style>
  </defs>
  <path class="st0" d="M256,0C115.4,0,0,115.4,0,256s115.4,256,256,256,256-115.4,256-256S396.6,0,256,0ZM350.8,380.8c-68.1-29.5-142.7-38.2-215.8-25.2l-5.3-29.5c78.9-14.1,159.5-4.7,233,27.2l-12,27.5ZM396.1,302.5c-88.9-40.9-190.6-52.8-286.4-33.7l-6.5-29.3h.8c101.9-20.4,210.1-7.7,304.7,35.8l-12.5,27.2ZM421.7,215.4c-98.7-42.5-211.3-55.7-317.4-37.1l-5.2-29.6c111.7-19.6,230.4-5.6,334.5,39.2l-11.9,27.5Z"/>
</svg>