<?xml version="1.0" encoding="UTF-8"?>
<svg id="Layer_1" xmlns="http://www.w3.org/2000/svg" version="1.1" viewBox="0 0 512 512">
  <!-- Generator: Adobe Illustrator 29.4.0, SVG Export Plug-In . SVG Version: 2.1.0 Build 152)  -->
  <defs>
    <style>
      .st0 {
        fill: #fff;
      }

      .st1 {
        fill: #b22222;
      }
    </style>
  </defs>
  <path class="st0" d="M256,0C115.4,0,0,115.4,0,256s115.4,256,256,256,256-115.4,256-256S396.6,0,256,0Z"/>
  <rect x="-457.8" y="111.3" width="363.7" height="289.4"/>
  <path class="st0" d="M-808,0c-140.6,0-256,115.4-256,256s115.4,256,256,256,256-115.4,256-256S-667.4,0-808,0Z"/>
  <path class="st0" d="M-1340,0c-140.6,0-256,115.4-256,256s115.4,256,256,256,256-115.4,256-256S-1199.4,0-1340,0Z"/>
  <g>
    <path d="M-1233.9,141.7h-212.1c-24.3,0-43.9,19.7-43.9,43.9v140.6c0,24.3,19.7,43.9,43.9,43.9h212.1c24.3,0,43.9-19.7,43.9-43.9v-140.6c0-24.3-19.7-43.9-43.9-43.9ZM-1383.9,316.6v-119.5l105.8,58.8-105.8,60.7Z"/>
    <path class="st1" d="M-1366.4,227v59.2l52.4-30.1-52.4-29.1h0Z"/>
  </g>
  <g id="UYsNRp.tif">
    <g>
      <path class="st0" d="M236.6,106v70.6s-47.8-49.3-47.8-49.3l-29.6,29.9,49.2,47.6h-70.4v42.4h70.4l-49,48.1,29.2,29.3,67.8-66.5,72.9,66.5,26.6-29.3-49-48.1h70.4s0,158.8,0,158.8h-242.9V106h102.1ZM236.6,303.6v98.8h42.2v-98.8h-42.2Z"/>
      <polygon points="278.9 106 278.9 176.6 326.4 127.2 356.2 157.2 307 204.8 377.4 204.8 377.4 247.2 307 247.2 356.1 295.3 329.4 324.6 256.5 258 188.6 324.6 159.5 295.3 208.5 247.2 138.1 247.2 138.1 204.8 208.5 204.8 159.3 157.2 188.9 127.3 236.6 176.6 236.6 106 278.9 106"/>
      <polygon class="st0" points="278.9 106 377.4 106 377.4 204.8 307 204.8 356.2 157.2 326.4 127.2 278.9 176.6 278.9 106"/>
      <rect x="236.6" y="303.6" width="42.2" height="98.8"/>
    </g>
  </g>
  <g>
    <path d="M-710.8,118.5h-194.4c-22.2,0-40.3,18-40.3,40.3v194.4c0,22.2,18,40.3,40.3,40.3h194.4c22.2,0,40.3-18,40.3-40.3v-194.4c0-22.2-18-40.3-40.3-40.3ZM-807.5,328c-40,0-72.5-32.5-72.5-72.5s32.5-72.5,72.5-72.5,72.5,32.5,72.5,72.5-32.5,72.5-72.5,72.5ZM-726.9,199.1c-13.3,0-24.2-10.8-24.2-24.2s10.8-24.2,24.2-24.2,24.2,10.8,24.2,24.2-10.8,24.2-24.2,24.2Z"/>
    <path class="st0" d="M-808,247.9c-4.5,0-8.1,3.6-8.1,8.1s3.6,8.1,8.1,8.1,8.1-3.6,8.1-8.1-3.6-8.1-8.1-8.1Z"/>
    <path class="st1" d="M-808,199.6c-31.1,0-56.4,25.3-56.4,56.4s25.3,56.4,56.4,56.4,56.4-25.3,56.4-56.4-25.3-56.4-56.4-56.4Z"/>
  </g>
  <rect class="st1" x="-445" y="211.8" width="328.6" height="103" transform="translate(23.8 27.9) rotate(5.5)"/>
  <path class="st0" d="M-276,0c-140.6,0-256,115.4-256,256s115.4,256,256,256S-20,396.6-20,256-135.4,0-276,0ZM-181.2,380.8c-68.1-29.5-142.7-38.2-215.8-25.2l-5.3-29.5c78.9-14.1,159.5-4.7,233,27.2l-12,27.5h.1ZM-135.9,302.5c-88.9-40.9-190.6-52.8-286.4-33.7l-6.5-29.3h.8c101.9-20.4,210.1-7.7,304.7,35.8l-12.5,27.2h-.1ZM-110.3,215.4c-98.7-42.5-211.3-55.7-317.4-37.1l-5.2-29.6c111.7-19.6,230.4-5.6,334.5,39.2l-11.9,27.5h0Z"/>
</svg>