<?xml version="1.0" encoding="UTF-8"?>
<svg id="Layer_1" data-name="Layer 1" xmlns="http://www.w3.org/2000/svg" viewBox="0 0 512 512">
  <defs>
    <style>
      .cls-1 {
        fill: #fff;
      }

      .cls-2 {
        fill: #b22222;
      }
    </style>
  </defs>
  <path class="cls-1" d="M256,0C115.4,0,0,115.4,0,256s115.4,256,256,256,256-115.4,256-256S396.6,0,256,0Z"/>
  <g>
    <path d="M362.05,141.74h-212.11c-24.26,0-43.95,19.69-43.95,43.95v140.62c0,24.26,19.69,43.95,43.95,43.95h212.11c24.26,0,43.95-19.69,43.95-43.95v-140.62c0-24.26-19.69-43.95-43.95-43.95ZM212.05,316.59v-119.47l105.76,58.77-105.76,60.7Z"/>
    <path class="cls-2" d="M229.63,227v59.24l52.44-30.12-52.44-29.12h0Z"/>
  </g>
</svg>