<?xml version="1.0" encoding="UTF-8"?>
<svg id="Layer_2" data-name="Layer 2" xmlns="http://www.w3.org/2000/svg" viewBox="0 0 1435.16 260.18">
  <defs>
    <style>
      .cls-1 {
        fill: #fff;
      }
    </style>
  </defs>
  <g id="Bicyclist">
    <g>
      <path class="cls-1" d="M55.89,45.98c-.57,2.81-1.16,6.06-1.78,9.74-.62,3.68-1.08,6.78-1.39,9.28-.05.15-.27.29-.65.42-.38.13-.75.19-1.11.19-.36,0-.72-.06-1.07-.19-.36-.13-.54-.27-.54-.42-.2-3.53-1.08-6.78-2.64-9.75-1.56-2.97-3.64-4.46-6.25-4.46h-.54c-1.13,0-1.91.25-2.34.76-.44.51-.76,1.2-.96,2.07l-8.8,36.54c-.1.41-.19.88-.27,1.42s-.12.93-.12,1.19c0,1.08.41,1.91,1.22,2.5.82.59,2.58,1.04,5.29,1.35.15,0,.25.18.31.53.05.35.08.61.08.76,0,.35-.09.78-.27,1.29-.18.5-.4.76-.65.76-2.51,0-5.19-.07-8.05-.2-2.86-.13-5.31-.2-7.36-.2-1.99,0-4.32.06-6.98.18s-5.14.19-7.44.18c-.05,0-.13-.13-.23-.38-.1-.25-.15-.56-.15-.91,0-.35.1-.77.31-1.25.21-.48.41-.75.62-.8,3.27-.35,5.35-.81,6.22-1.37.87-.56,1.64-2.26,2.31-5.1l8.79-36.51c.26-1.18.22-1.95-.11-2.3s-1.16-.54-2.49-.54h-.61c-2.71,0-5.57,1.47-8.57,4.44-3,2.96-5.09,5.95-6.27,8.97-.05.15-.26.32-.62.5-.36.18-.72.27-1.07.27-.51,0-.92-.09-1.23-.27C.15,64.49,0,64.32,0,64.17c.77-3.02,1.54-6.15,2.31-9.4.77-3.25,1.39-6.2,1.85-8.86,1.79.31,4.62.57,8.48.78,3.86.21,9.83.32,17.92.33,6.96,0,12.52-.08,16.69-.28,4.17-.2,7.05-.45,8.63-.76Z"/>
      <path class="cls-1" d="M124.13,47.75c0,.3-.14.77-.42,1.4-.28.63-.55.95-.81.95-2.97.3-4.84.9-5.6,1.8s-1.44,2.45-2,4.65l-8.12,33.7c-.1.43-.19.91-.27,1.45-.08.54-.12.93-.12,1.19,0,1.08.24,1.91.73,2.5.49.59,2.11,1.04,4.87,1.35.1,0,.19.18.27.53.08.35.11.61.11.76,0,.35-.14.78-.42,1.29-.28.51-.55.76-.81.76-2.46,0-4.94-.07-7.44-.2-2.51-.13-4.75-.2-6.75-.2-1.99,0-4.07.06-6.21.18-2.15.12-4.37.19-6.68.18-.05,0-.13-.13-.23-.38-.1-.25-.15-.56-.15-.91,0-.35.15-.77.46-1.25.31-.48.56-.75.77-.8,2.56-.3,4.22-.99,4.99-2.07.77-1.08,1.36-2.54,1.77-4.38l3.56-15.21-17.98-.02-3.64,15.21c-.1.41-.21.88-.31,1.42-.1.54-.15.93-.15,1.19,0,1.13.06,1.97.19,2.54s1.62,1,4.49,1.31c.15,0,.25.18.31.53s.08.61.08.76c0,.35-.14.78-.42,1.29-.28.51-.53.76-.73.76-2.51,0-4.84-.07-7.02-.2s-4.28-.2-6.32-.2c-1.94,0-4.17.06-6.67.18-2.51.12-4.86.19-7.06.18-.1,0-.2-.13-.31-.38-.1-.25-.15-.56-.15-.91,0-.35.15-.77.46-1.25s.56-.75.77-.8c3.02-.35,4.94-.99,5.76-1.91.82-.92,1.46-2.44,1.92-4.56l8.04-33.7c.1-.46.21-.91.31-1.34.1-.43.15-.86.15-1.27,0-1.13-.24-1.96-.73-2.5-.48-.54-2.11-.99-4.87-1.35-.15-.05-.26-.24-.31-.57-.05-.33-.08-.57-.08-.72,0-.35.13-.78.39-1.29.26-.5.51-.76.77-.76,2.46,0,4.94.07,7.44.2,2.5.13,4.75.2,6.75.2,1.99,0,4.06-.06,6.21-.18,2.15-.12,4.37-.19,6.68-.18.1,0,.2.08.31.23.1.15.15.4.15.76,0,.35-.15.83-.46,1.44-.31.61-.56.91-.77.91-2.51.25-4.15.9-4.91,1.95-.77,1.05-1.38,2.55-1.85,4.49l-3.56,14.75,18.06.02,3.56-14.75c.1-.46.19-.91.27-1.34.08-.43.12-.86.12-1.27,0-1.33-.24-2.24-.73-2.73s-1.8-.86-3.95-1.12c-.1-.05-.19-.24-.27-.57-.08-.33-.11-.57-.11-.72,0-.35.14-.78.42-1.29.28-.5.55-.76.81-.76,2.51,0,4.83.07,6.98.2s4.24.2,6.29.2c1.99,0,4.22-.06,6.67-.18,2.46-.12,4.83-.19,7.14-.18.05,0,.13.08.23.23s.15.4.15.76Z"/>
      <path class="cls-1" d="M174.44,46.83c-.21,1.23-.39,2.66-.54,4.3-.16,1.64-.29,3.07-.39,4.3-.05.82-.12,2.16-.2,4.03s-.12,3.26-.12,4.18c0,.15-.22.29-.65.42-.44.13-.81.19-1.11.19-.26,0-.59-.06-1-.19-.41-.13-.61-.27-.61-.42-.1-3.07-1.14-5.95-3.13-8.64-1.99-2.69-4.53-4.03-7.64-4.04h-2.14c-1.12,0-2.19.21-3.21.64-1.02.43-1.81,1.72-2.38,3.87l-3.72,15.27h3.31c2.56,0,4.62-.45,6.16-1.37,1.54-.92,2.77-2.71,3.7-5.37.05-.15.28-.29.69-.42.41-.13.74-.19,1-.19.36,0,.75.06,1.19.19.43.13.6.27.5.42-.36,1.43-.75,2.93-1.16,4.49-.41,1.56-.77,2.98-1.08,4.26-.51,1.99-.86,3.63-1.04,4.91-.18,1.28-.53,2.97-1.04,5.06-.1.21-.36.36-.77.46-.41.1-.72.15-.92.15-.51,0-.92-.07-1.23-.19-.31-.13-.46-.27-.46-.42.31-3.02-.11-5.14-1.26-6.37-1.15-1.23-2.88-1.85-5.18-1.85h-3.3s-3.77,15.8-3.77,15.8c-.1.41-.19.88-.27,1.42-.08.54-.12.93-.12,1.19,0,1.18.33,1.98.99,2.42.66.44,1.51.65,2.53.66h5.06c3.79.01,7.27-1.4,10.44-4.24,3.17-2.83,5.25-5.91,6.23-9.24,0-.1.18-.18.54-.23.36-.05.61-.08.77-.08.41,0,.88.13,1.42.39.54.26.75.46.65.62-.62,2.2-1.34,5.01-2.16,8.44-.82,3.43-1.47,6.26-1.93,8.51-2.81-.11-6.72-.2-11.74-.28-5.01-.08-9.05-.13-12.12-.13-3.07,0-7.11.04-12.12.14-5.01.1-8.95.17-11.82.21-.05,0-.13-.13-.23-.38-.1-.25-.15-.56-.15-.91,0-.35.15-.77.46-1.25.31-.48.56-.75.77-.8,3.02-.35,4.94-.99,5.76-1.91.82-.92,1.46-2.44,1.92-4.56l8.04-33.7c.1-.46.21-.91.31-1.34.1-.43.15-.86.15-1.27,0-1.13-.24-1.96-.73-2.5-.48-.54-2.11-.99-4.87-1.35-.15-.05-.26-.24-.31-.57-.05-.33-.08-.57-.08-.72,0-.35.13-.78.39-1.29.26-.51.51-.76.77-.76,2.3.05,5.75.14,10.35.24,4.6.11,8.15.17,10.66.17,2.45,0,6.1-.03,10.93-.1,4.83-.07,8.5-.15,11-.25Z"/>
      <path class="cls-1" d="M346.24,43.37l-7.7,44.25-4.34,23.69c-2.17,12.33-5.53,34.07-7.31,46.79-.4,2.54-.79,4.7-.79,7.24,0,6.27,2.14,10.38,9.19,10.39,1.17,0,1.57.59,1.37,1.76l-.99,4.7c-.2,1.37-1.18,1.96-2.35,2.15-7.05-.6-14.69-1-21.93-1.01-7.05,0-15.08.37-22.33.95-.59,0-1.37-.39-1.17-1.57l.99-4.89c.2-1.57.98-2.15,2.55-2.15,8.81.01,11.95-7.03,13.93-17.02,2.96-15.08,5.72-30.15,8.48-46.6,2.17-12.53,9.67-58.15,11.06-68.72.2-1.37.98-2.35,2.35-2.15,3.13.4,8.22.79,15.67.61-12.92-6.87-18.2-10.6-22.7-13.54-15.65-10.4-31.7-20.02-49.91-20.04-30.35-.04-54.08,25.19-54.12,52.21-.02,18.21,10.73,30.56,25.22,30.58,12.34.02,19.2-9.18,19.21-17.4,0-2.15-.58-4.5-1.95-6.27,2.35-2.15,5.29-3.32,7.84-3.32,5.09,0,9.59,3.93,9.58,10.98-.02,14.69-18.63,22.5-35.28,22.47-22.52-.03-44.24-14.55-44.2-40.79C196.66,20.65,238-.05,276.58,0c29.18.04,49.14,12.4,67.73,23.79,16.83,10.4,32.87,20.02,54.22,20.05,22.32.03,28.02-10.93,28.03-19.35.01-7.64-4.68-12.54-9.97-12.55h-.39c1.58-5.87,6.67-10.57,13.33-10.56,5.09,0,14.49,2.76,14.47,13.92-.03,19.58-26.09,36.78-58.8,36.74-13.32-.02-26.43-3.36-38.96-8.67ZM271.47,11.94c8.03.01,15.47,1.98,22.71,5.12-5.29-1.57-10.96-2.56-16.84-2.57-29.18-.04-52.12,24.21-52.16,50.26,0,1.76.19,3.33.38,5.09-1.37-3.53-2.14-7.44-2.14-11.75.03-25.07,22-46.19,48.04-46.15ZM283.34,72.66v-.78c1.17,1.96,1.76,4.51,1.75,7.44-.02,15.86-19.62,24.45-37.24,24.43-7.83-.01-15.47-1.78-22.32-5.12,5.29,1.57,10.77,2.56,16.45,2.57,9.79.01,19.78-2.52,27.23-6.82,4.31-2.54,7.64-5.47,10-9,2.75-3.91,4.12-8.22,4.13-12.72ZM341.35,182.8l.4-2.54c1.96.2,2.74,1.57,2.35,3.92l-.99,4.7c-.4,2.74-1.77,3.91-4.51,3.91-14.49-1.39-28.98-1.41-43.87-.06-1.18,0-3.33-.4-3.33-2.75,6.46-.58,13.12-.96,19.58-.95,7.25,0,14.69.41,21.74,1.21,2.35.2,4.31-.78,5.88-1.95,1.37-1.37,2.35-3.13,2.75-5.48ZM351.32,49.06c.78.39,1.76.59,2.74.98-1.97,9.79-10.06,55.41-12.43,68.13-2.17,12.73-5.53,34.07-7.31,46.6-.2,1.57-.4,3.13-.59,4.5-.39,0-.98-.2-1.17-.39-.19-.39-.59-.98-.58-3.13-.19-1.76,0-3.92.6-7.05v-.2c1.58-11.94,4.94-33.29,7.31-46.4.79-4.7,2.37-13.31,4.14-23.69,2.56-13.71,5.52-30.35,7.3-39.35ZM451.25,11.59c1.17,2.15,1.76,4.7,1.75,8.03-.03,20.56-26.88,38.74-60.76,38.69-14.1-.02-26.24-3.17-37-7.88,3.33,1.18,6.46,2.16,9.79,2.76,7.05,1.77,13.9,2.56,21.34,2.57,17.04.02,33.1-4.46,45.25-12.47,6.08-3.71,10.78-8.41,14.12-13.49,3.73-5.28,5.5-11.15,5.51-16.83v-1.37Z"/>
      <path class="cls-1" d="M351.73,182.81c.2-1.57.79-3.33.99-4.89.2-1.57.98-2.15,2.55-2.15,8.42.01,11.76-7.82,13.93-17.02,3.15-14.09,10.06-53.45,12.04-67.54.39-2.15.59-4.7.6-6.85,0-6.46-1.94-10.77-8.99-10.78-.59,0-1.57-.2-1.37-1.57.2-1.57.79-3.33.99-4.89.2-1.37,1.18-1.96,2.35-2.15,6.46.79,13.9,1,21.15,1.01,7.25,0,14.88-.18,22.33-.95.78,0,1.37.59,1.17,1.76-.2,1.57-.79,3.13-.99,4.7-.2,1.57-.98,2.15-2.55,2.15-8.62-.01-11.76,7.82-13.93,17.02-3.15,14.1-10.06,53.45-12.04,67.55v-.2c-.39,2.54-.59,5.09-.6,7.44,0,6.27,1.94,10.38,8.99,10.39,1.17,0,1.57.59,1.37,1.76-.2,1.57-.79,3.13-.99,4.7-.2,1.37-1.18,1.96-2.35,2.15-6.85-.6-14.29-1-21.54-1.01-7.44,0-14.69.37-21.93.95-.59,0-1.37-.2-1.17-1.57ZM405.19,183.08l.59-2.54c1.76.2,2.54,1.37,2.15,3.72l-.99,4.7c-.4,2.74-1.77,3.92-4.51,3.91-14.1-1.39-28.59-1.41-43.08-.06-1.18,0-3.33-.2-3.33-2.75,6.27-.58,12.73-.77,19.19-.76,7.05,0,14.1.41,20.95,1.01h.39c4.31,0,7.84-2.54,8.63-7.23ZM424.92,72.26l.59-2.74c1.76.2,2.54,1.57,2.15,3.92l-.99,4.7c-.4,2.74-1.77,3.92-4.51,3.91-7.64,0-10,6.45-11.97,15.46-3.15,14.09-10.06,53.25-12.04,67.35-.2,1.57-.4,3.13-.4,4.7-.59-.2-.98-.2-1.17-.59-.2-.2-.59-.78-.78-2.94,0-2.15.2-4.9.6-7.25,2.97-21.34,6.91-42.49,12.04-66.96.79-3.52,1.77-7.44,3.15-9.79,1.18-1.76,2.55-2.54,4.7-2.54,2.35,0,4.31-.58,5.88-1.95,1.37-1.17,2.35-2.93,2.75-5.28Z"/>
      <path class="cls-1" d="M481.72,66.86l11.27,68.75,37.1-67.9c.79-1.76,2.35-2.54,3.72-2.54,5.09.59,12.14,1,19.58,1,6.27,0,13.51-.37,20.37-.95.78,0,1.37.59,1.17,1.76-.2,1.57-.79,3.13-.99,4.7-.2,1.57-.98,2.15-2.55,2.15-8.62-.01-11.76,7.82-13.93,17.02-3.15,14.09-10.06,53.45-12.04,67.55v-.2c-.39,2.55-.59,5.09-.6,7.44,0,6.27,1.94,10.38,8.99,10.39,1.18,0,1.57.59,1.37,1.76-.2,1.57-.79,3.13-.99,4.7-.2,1.37-1.18,1.96-2.35,2.15-7.05-.6-14.69-1-21.93-1.01-7.05,0-15.08.37-22.33.95-.59,0-1.37-.39-1.17-1.57.2-1.57.79-3.33.99-4.89.2-1.57.98-2.15,2.55-2.15,8.42.01,11.76-7.82,13.93-17.02,3.15-14.1,10.06-53.45,12.04-67.55.2-1.96.99-6.66,1-12.73l-55.17,102.74h-1.57s-20.23-102.64-20.23-102.64c-1.97,10.18-2.36,11.16-2.37,11.94-3.35,14.88-10.06,53.64-11.84,67.55v-.2c-.39,2.15-.59,4.5-.6,6.46,0,6.85,2.73,11.36,13.69,11.38,1.18,0,1.57.59,1.37,1.76-.2,1.57-.79,3.13-.99,4.7-.2,1.37-1.18,1.96-2.35,2.15-7.05-.6-14.69-1-21.93-1.01-7.05,0-15.08.37-22.33.95-.59,0-1.37-.39-1.17-1.57.2-1.57.79-3.33.99-4.89.2-1.57.98-2.15,2.55-2.15,10.97.01,16.46-7.03,18.63-17.01,3.15-14.1,10.06-53.25,11.84-67.55v.2c.39-2.15.59-4.31.6-6.27,0-7.05-2.92-11.56-13.69-11.57-.59,0-1.57-.2-1.37-1.57.2-1.57.79-3.33.99-4.9.2-1.37,1.18-1.96,2.35-2.15,3.52.4,13.71,1,23.89,1.01,7.05,0,14.1-.18,19.58-.95,2.35,0,3.33.59,3.91,1.77ZM465.31,182.77l.59-2.54c1.76.39,2.54,1.57,2.15,3.92l-.99,4.7c-.4,2.74-1.77,3.91-4.51,3.91-14.49-1.39-28.98-1.41-43.87-.06-1.17,0-3.33-.4-3.33-2.75,6.46-.58,13.12-.77,19.58-.76,7.05,0,14.3.21,21.34,1.01h.39c2.35,0,4.31-.78,5.88-1.95,1.37-1.37,2.35-3.13,2.75-5.48ZM439.01,80.9c.2.39.39.59.59.98h-1.37c-1.17,0-3.13-.4-3.33-2.55,1.96.39,3.52.79,4.11,1.57ZM459.92,109.32l1.56,7.64c-3.16,17.03-6.71,38.18-7.9,47.77-.2,1.17-.4,2.55-.4,3.72-.59-.2-.78-.39-1.17-.79-1.17-1.37-.78-5.09-.18-9.01v-.2c1.19-9.99,4.94-32.11,8.09-49.14ZM526.9,109.22c-.79,4.31-1.58,8.81-2.37,13.31l-35.73,67.12h-4.31s-.58-2.75-.58-2.75c1.18-.19,2.16-.98,2.74-1.95l40.25-75.73ZM496.14,116.62l-7.38-45.44c.2.39,1.56.98,1.76,1.57l6.99,43.09-1.37.78ZM560.29,182.9l.59-2.54c1.76.39,2.54,1.57,2.15,3.92l-.99,4.7c-.4,2.74-1.77,3.92-4.51,3.91-14.49-1.39-28.98-1.41-43.87-.06-1.18,0-3.33-.4-3.33-2.75,6.46-.58,13.12-.77,19.58-.76,7.05,0,14.3.22,21.34,1.01h.39c2.35,0,4.31-.78,5.88-1.95,1.37-1.37,2.35-3.13,2.75-5.48ZM577.26,82.06c-7.64-.01-10,6.45-11.97,15.45-3.15,14.1-10.06,53.25-12.04,67.35-.2,1.57-.4,3.13-.59,4.5-.39,0-.78-.2-.98-.39-.2-.2-.78-.98-.78-2.94,0-2.15.2-4.9.6-7.24,1.98-14.1,8.88-53.06,12.04-67.16.59-3.52,1.58-7.44,3.15-9.59,1.18-1.96,2.55-2.54,4.7-2.54,2.35,0,4.31-.78,5.88-1.95,1.37-1.37,2.35-3.13,2.75-5.48l.59-2.55c1.76.2,2.54,1.57,2.15,3.92l-.99,4.7c-.4,2.74-1.77,3.91-4.51,3.91Z"/>
      <path class="cls-1" d="M567.92,183.1l1.18-5.29c.39-1.37.98-1.76,2.55-1.76,8.42.01,11.76-8.6,13.93-17.61,3.15-14.1,9.67-52.47,11.64-66.37.4-2.35.59-4.89.6-7.05,0-6.46-1.94-10.77-8.99-10.78-.59,0-1.57-.2-1.37-1.57l.99-5.29c.2-1.37,1.37-1.96,2.55-2.15,12.73.6,24.87.82,37.21.83,12.14.02,24.48-.16,37.4-.73,1.96-.19,3.13.59,3.72,2.16l9.75,30.56c.19,1.57-1.18,2.35-3.14,2.35-1.96,0-3.92-.4-5.09-2.55-6.25-11.37-16.81-23.52-33.26-23.54h-4.9c-8.62-.02-11.76,7.81-13.93,17.01-1.38,6.26-3.74,17.82-4.53,22.91-.79,4.11.58,6.27,5.08,6.27h11.55c4.5.02,9.01-3.69,10-7.61l.79-3.13c.39-1.37,1.18-2.35,2.55-2.35h7.25c.59.01,1.37.4,1.37,1.38-2.75,9.79-5.52,24.08-5.92,33.48-.39,1.37-1.37,1.96-2.55,1.96h-7.25c-1.17-.01-1.57-.4-1.37-1.58l.59-3.52c.79-4.7-1.95-9.21-8.21-9.21h-10.97c-3.92-.02-5.88,1.74-6.47,5.46-.59,2.74-2.96,17.42-3.55,22.32-1.38,9.99.17,17.82,16.43,17.84h6.07c15.47.03,30.77-16.4,37.64-28.53.98-1.76,2.75-3.33,6.08-3.32,2.35,0,2.54,1.18,2.15,1.96l-15.13,36.8c-.79,1.57-2.16,2.35-3.92,2.35-15.27-.61-30.16-1.02-45.04-1.04-13.71-.02-27.61.35-42.1.92-.59,0-1.76-.2-1.37-1.57ZM666.23,184.6l14.34-35.03c1.96.39,3.52,1.57,2.74,3.33l-15.13,36.8c-.98,2.54-2.94,3.52-5.68,3.52-29.57-1.22-57.18-1.45-87.14-.12-1.18,0-3.33-.2-3.52-2.55,13.32-.57,26.24-.94,39.75-.93,14.1.02,28.79.43,44.84,1.04,3.92,0,7.84-1.75,9.8-6.06ZM630.45,137.95v.39s-7.25,0-7.25,0c-2.74,0-4.11,1.17-4.51,3.91-.59,2.74-2.96,17.62-3.56,22.32-.2.98-.2,1.96-.4,2.94-.2-.2-.39-.39-.59-.78-1.76-1.96-1.17-5.29-.77-8.23.59-4.7,2.96-19.38,3.55-22.13v-.59s11.36.02,11.36.02c.78,0,1.37.39,1.76.79.2.2.59.78.39,1.37ZM637.78,80.19c4.9,0,9.2,1.38,12.72,3.35-2.15-.39-4.5-.79-6.85-.79h-4.9c-7.64-.02-10,6.44-11.97,15.45-.98,4.11-2.17,10.77-3.35,16.05h-2.74c.79-5.09,2.96-15.67,4.34-21.74.59-3.52,1.77-7.44,3.15-9.79,1.18-1.76,2.55-2.54,4.7-2.54h4.9ZM653.16,142.29c.4-8.22,2.38-20.17,5.33-30.35,1.96.39,2.74,1.57,2.34,3.92-2.95,9.98-5.51,23.3-5.92,32.89-.4,2.74-1.77,3.91-4.51,3.91h-7.25c-2.15-.01-3.33-.8-3.52-2.56h4.9c4.7.01,7.64-2.92,8.63-7.82ZM684.16,101.79c.79-.98,1.18-1.96,1.18-3.13l1.76,5.29c1.37,4.11-8.82,6.06-11.75,1.55,3.92,0,7.25-1.36,8.82-3.71Z"/>
      <path class="cls-1" d="M878.57,133.19c2.5,35.45,31.19,109.9,78.38,109.97,19.39.03,26.26-10.74,26.27-19.74,0-7.25-4.68-12.15-10.17-12.16h-.2c1.57-5.87,6.67-10.57,13.13-10.56,5.29,0,14.68,2.76,14.67,13.92-.03,19.98-27.47,38.15-55.67,38.11-53.66-.07-78.83-63.95-83.85-122.7-.39-3.13.6-7.05,2.56-7.05,25.85-1.14,40.76-22.27,40.79-44.01.02-16.25-9.35-35.26-33.05-35.29-10.18-.01-14.7,7.62-16.86,17.01-7.1,35.63-12.82,65.78-16.97,98.09v-.2c-.39,2.55-.59,5.09-.6,7.44,0,6.27,1.94,10.38,8.99,10.39,1.18,0,1.57.59,1.37,1.76-.2,1.57-.79,3.13-.99,4.7-.2,1.37-1.18,1.96-2.35,2.15-7.25-.6-15.08-1-22.32-1.01-7.25,0-15.28.37-22.72.95-.59,0-1.37-.39-1.17-1.57.2-1.57.79-3.33.99-4.89.2-1.57.98-2.15,2.55-2.15,8.81.01,11.96-7.03,13.93-17.02l3.75-18.4c1.77-8.81,3.74-18.01,5.32-27.02,1.58-8.81,2.77-18.21,4.15-27.8l3.75-24.67c1.38-9.4-4.67-19.79-26.61-19.81-28.98-.04-59.17,23.62-59.21,54.17-.02,16.45,10.73,29.58,24.83,29.6,13.12.02,19.6-9.18,19.61-17.4,0-2.15-.58-4.5-1.95-6.27,2.35-2.15,5.29-3.32,7.84-3.32,5.29,0,10.76,5.3,9.38,13.33-2.17,12.73-19.22,20.15-35.67,20.12-21.74-.03-43.65-15.33-43.62-39.62.05-37.01,41.2-59.08,79.59-59.03,4.31,0,11.36.21,20.17.62,14.1.61,32.51,1.22,49.94,1.24,39.56.05,52.26,22.2,52.82,43.94.56,22.72-17.1,46.19-47.65,50.66-2.35,0-3.14,1.76-3.14,3.52ZM818.17,49.29c1.37.59,2.74,1.18,3.72,1.96-2.94-.79-6.46-1.18-10.57-1.19-28-.04-57.21,22.83-57.25,52.21,0,1.37,0,2.74.19,4.11-1.17-3.14-1.95-6.86-1.94-10.77.04-27.61,28.07-48.14,53.13-48.1,5.09,0,9.4.6,12.73,1.78ZM812.22,108.62c1.56,2.55,2.15,5.88,1.55,9.99-2.56,14.1-19.81,21.71-37.63,21.69-7.44,0-14.88-1.59-21.34-4.92,4.89,1.57,10.18,2.36,15.47,2.37,9.79.01,19.19-2.13,26.45-6.04,4.12-2.15,7.45-4.69,9.8-7.82,2.94-3.33,4.71-7.04,5.5-11.16v-.2c.2-1.37.2-2.74.2-3.92ZM852.26,183.68l.4-2.54c1.96.2,2.74,1.38,2.35,3.72l-.99,4.7c-.4,2.74-1.77,3.91-4.51,3.91-14.88-1.39-29.37-1.41-44.65-.06-1.17,0-3.33-.2-3.33-2.75,6.66-.58,13.32-.77,19.98-.76,7.25,0,14.29.41,21.74,1.01h.39c2.35,0,4.31-.58,5.88-1.95,1.37-1.17,2.35-2.93,2.75-5.28ZM871.24,49.56c5.68,0,10.18,1.38,13.9,3.54-2.54-.59-5.09-.99-8.03-.99-9.4-.01-13.13,6.45-14.9,15.45-7.1,35.63-12.82,65.59-16.97,97.89-.2,1.76-.4,3.13-.59,4.7-.39,0-.78-.2-.98-.39-.2-.39-.78-.98-.78-3.13,0-1.96.2-4.9.6-7.25,4.16-33.09,10.07-63.83,16.97-97.7,1.97-9.98,5.7-12.13,10.79-12.13ZM935.24,78.82c0-3.13-.38-5.88-.77-8.81,1.56,5.09,2.34,10.38,2.52,15.47.56,23.89-16.91,48.35-49.42,52.61h-1.57c0,.19.2.39.19.59.38,5.29,1.16,11.36,2.72,17.82-2.14-7.84-3.5-15.28-4.28-21.35,7.44-1.17,14.3-3.51,20.57-6.63,6.47-3.52,12.15-8.01,16.66-13.29,4.51-5.09,7.85-10.96,10.21-17.22,2.16-6.26,3.35-12.72,3.16-19.19ZM1008.29,221.1c-.03,20.37-28.45,39.13-57.63,39.09-10.58-.01-19.97-2.18-28.58-5.91,7.24,2.16,14.68,3.35,22.71,3.36,14.88.02,30.16-4.46,42.12-12.48,5.88-4.1,10.59-8.6,13.92-13.69,3.73-5.48,5.69-11.15,5.7-17.03v-1.17c1.17,1.96,1.76,4.7,1.75,7.84Z"/>
      <path class="cls-1" d="M923.94,183.58c.2-1.57.79-3.33.99-4.89.2-1.57.98-2.15,2.55-2.15,8.42.01,11.76-7.82,13.93-17.02,3.15-14.1,10.06-53.45,12.04-67.55.39-2.15.59-4.7.6-6.85,0-6.46-1.94-10.77-8.99-10.78-.59,0-1.57-.2-1.37-1.57.2-1.57.79-3.33.99-4.9.2-1.37,1.18-1.96,2.35-2.15,6.46.79,13.9,1,21.15,1.01,7.25,0,14.88-.17,22.33-.95.78,0,1.37.59,1.17,1.76-.2,1.57-.79,3.13-.99,4.7-.2,1.57-.98,2.15-2.55,2.15-8.62-.01-11.76,7.82-13.93,17.02-3.15,14.09-10.06,53.45-12.04,67.55v-.2c-.39,2.55-.59,5.09-.6,7.44,0,6.27,1.94,10.38,8.99,10.39,1.18,0,1.57.59,1.37,1.76-.2,1.57-.79,3.13-.99,4.7-.2,1.37-1.18,1.96-2.35,2.15-6.85-.6-14.29-1-21.54-1.01-7.44,0-14.69.37-21.93.95-.59,0-1.37-.2-1.17-1.57ZM977.4,183.85l.59-2.54c1.76.2,2.54,1.37,2.15,3.72l-.99,4.7c-.4,2.74-1.77,3.91-4.51,3.91-14.1-1.39-28.59-1.41-43.08-.06-1.18,0-3.33-.2-3.33-2.75,6.27-.58,12.73-.77,19.19-.76,7.05,0,14.1.41,20.95,1.01h.39c4.31,0,7.84-2.54,8.63-7.23ZM997.13,73.03l.59-2.74c1.76.2,2.54,1.57,2.15,3.92l-.99,4.7c-.4,2.74-1.77,3.92-4.51,3.91-7.64,0-10,6.45-11.97,15.46-3.15,14.1-10.06,53.25-12.04,67.35-.2,1.57-.4,3.13-.4,4.7-.59-.2-.98-.2-1.17-.59-.2-.2-.59-.78-.78-2.94,0-2.15.2-4.9.6-7.25,2.97-21.34,6.91-42.49,12.04-66.96.79-3.52,1.77-7.44,3.15-9.79,1.18-1.76,2.55-2.54,4.7-2.54,2.35,0,4.31-.58,5.88-1.95,1.37-1.17,2.35-2.93,2.75-5.28Z"/>
      <path class="cls-1" d="M1008.53,184.28c-6.66,0-14.88.37-22.72.95-.59,0-1.37-.39-1.17-1.57.2-1.57.79-3.33.99-4.89.2-1.57.98-2.15,2.55-2.15,8.42.01,11.96-7.62,13.93-17.02,3.35-14.68,10.06-53.64,12.04-67.55v.2c.39-2.35.59-4.89.6-7.05,0-6.46-1.94-10.77-8.99-10.78-.59,0-1.57-.2-1.37-1.57.2-1.57.79-3.33.99-4.9.2-1.37,1.18-1.96,2.35-2.15,5.68.59,11.75.8,17.82.81,4.7,0,10.77-.18,15.67-.37,5.88-.19,11.95-.38,18.21-.37,33.88.05,50.69,25.13,50.65,50.98-.04,32.9-24.38,71.64-72.75,68.64-9.59-.6-18.8-1.2-28.79-1.21ZM1116.33,116.67c0-3.92-.38-7.64-.96-11.36,1.75,5.68,2.73,11.95,2.72,18.02-.05,33.88-25.17,73.6-74.9,70.59-16.25-1-30.94-1.8-51.11-.26-1.18,0-3.33-.2-3.33-2.75,6.85-.38,13.32-.57,19.98-.56,9.6.01,18.6.42,28.39,1.02,1.76.2,3.52.2,5.29.2,11.75.02,22.52-2.32,32.32-6.81,8.82-4.1,16.66-10.16,23.13-17.79,5.88-7.04,10.6-15.06,13.94-24.07,2.95-8.42,4.53-17.42,4.54-26.23ZM1023.64,158.84c-.4,2.35-.59,4.5-.6,6.66,0,6.66,2.53,10.97,14.08,11.18h1.17c30.94,1.61,49.39-32.05,49.43-61.03.03-20.95-10.13-41.14-32.45-41.17-11.95-.02-17.44,7.03-19.61,17.01-3.15,13.9-10.06,53.25-12.04,67.55v-.2ZM1055.47,80.36c4.7,0,8.81,1.19,12.33,3.35-1.96-.59-4.11-.79-6.46-.79-10.77-.01-15.68,6.44-17.65,15.45-3.15,14.1-10.06,53.25-12.04,67.35-.2,1.37-.4,2.54-.4,3.72-.59-.2-.98-.59-1.17-.79-1.17-1.37-.78-5.48-.18-9.01,1.98-13.9,8.88-53.06,12.04-66.96,1.38-6.85,5.3-12.33,13.53-12.32Z"/>
      <path class="cls-1" d="M1106.44,183.82l1.18-5.29c.39-1.37.98-1.76,2.55-1.76,8.42.01,11.76-8.6,13.93-17.61,3.15-14.1,9.67-52.47,11.64-66.37.4-2.35.59-4.89.6-7.05,0-6.46-1.94-10.77-8.99-10.78-.59,0-1.57-.2-1.37-1.57l.99-5.29c.2-1.37,1.37-1.96,2.55-2.15,12.73.6,24.87.82,37.21.83,12.14.02,24.48-.16,37.4-.73,1.96-.19,3.13.59,3.72,2.16l9.75,30.56c.19,1.57-1.18,2.35-3.14,2.35-1.96,0-3.92-.4-5.09-2.55-6.25-11.37-16.81-23.52-33.26-23.54h-4.9c-8.62-.02-11.76,7.81-13.93,17.01-1.38,6.26-3.74,17.82-4.53,22.91-.79,4.11.58,6.27,5.08,6.27h11.55c4.5.02,9.01-3.69,10-7.61l.79-3.13c.39-1.37,1.18-2.35,2.55-2.35h7.25c.59,0,1.37.4,1.37,1.38-2.75,9.79-5.52,24.08-5.92,33.48-.39,1.37-1.37,1.96-2.55,1.96h-7.25c-1.17-.01-1.57-.4-1.37-1.58l.59-3.52c.79-4.7-1.95-9.21-8.21-9.21h-10.97c-3.92-.02-5.88,1.74-6.47,5.46-.59,2.74-2.96,17.42-3.55,22.32-1.38,9.99.17,17.82,16.43,17.84h6.07c15.47.03,30.77-16.4,37.64-28.53.98-1.76,2.75-3.33,6.08-3.32,2.35,0,2.54,1.18,2.15,1.96l-15.13,36.8c-.79,1.57-2.16,2.35-3.92,2.35-15.27-.61-30.16-1.02-45.04-1.04-13.71-.02-27.61.35-42.1.92-.59,0-1.76-.2-1.37-1.57ZM1204.75,185.33l14.34-35.03c1.96.39,3.52,1.57,2.74,3.33l-15.13,36.8c-.98,2.54-2.94,3.52-5.68,3.52-29.57-1.22-57.18-1.45-87.14-.12-1.18,0-3.33-.2-3.52-2.55,13.32-.57,26.24-.94,39.75-.93,14.1.02,28.79.43,44.84,1.04,3.92,0,7.84-1.75,9.8-6.06ZM1168.98,138.67v.39s-7.25,0-7.25,0c-2.74,0-4.11,1.17-4.51,3.91-.59,2.74-2.96,17.62-3.56,22.32-.2.98-.2,1.96-.4,2.94-.2-.2-.39-.39-.59-.78-1.76-1.96-1.17-5.29-.77-8.23.59-4.7,2.96-19.38,3.55-22.13v-.59s11.36.02,11.36.02c.78,0,1.37.39,1.76.79.2.2.59.78.39,1.37ZM1176.3,80.91c4.9,0,9.2,1.38,12.72,3.35-2.15-.39-4.5-.79-6.85-.79h-4.9c-7.64-.02-10,6.44-11.97,15.45-.98,4.11-2.17,10.77-3.35,16.05h-2.74c.79-5.09,2.96-15.67,4.34-21.74.59-3.52,1.77-7.44,3.15-9.79,1.18-1.76,2.55-2.54,4.7-2.54h4.9ZM1191.69,143.01c.4-8.22,2.38-20.17,5.33-30.35,1.96.39,2.74,1.57,2.34,3.92-2.95,9.98-5.51,23.3-5.92,32.89-.4,2.74-1.77,3.92-4.51,3.91h-7.25c-2.15-.01-3.33-.8-3.52-2.56h4.9c4.7.01,7.64-2.92,8.63-7.82ZM1222.68,102.51c.79-.98,1.18-1.96,1.18-3.13l1.76,5.29c1.37,4.11-8.82,6.06-11.75,1.55,3.92,0,7.25-1.36,8.82-3.71Z"/>
      <path class="cls-1" d="M1285.43,182.1c-1.95-4.31-3.71-7.64-5.08-10.58-3.91-8.03-6.44-13.72-13.08-29.59-.98-2.16-.58-3.53,1.38-3.52,1.57,0,3.13-.19,3.72-.19,19.78-1.74,35.47-20.71,32.37-40.69-1.55-10.77-6.82-22.73-26.6-22.75-9.2-.01-12.54,7.62-14.51,17.02-3.15,14.29-10.06,52.47-12.04,67.55-.4,2.54-.79,4.7-.79,7.24,0,6.27,2.14,10.38,9.19,10.39,1.18,0,1.57.59,1.37,1.76-.2,1.57-.79,3.13-.99,4.7-.2,1.37-1.18,1.96-2.35,2.15-7.05-.6-14.69-1-21.93-1.01-7.05,0-15.08.37-22.33.95-.59,0-1.37-.39-1.17-1.57.2-1.57.79-3.33.99-4.89.2-1.57.98-2.15,2.55-2.15,8.42.01,11.96-7.62,13.93-17.02,3.35-14.88,10.26-53.64,12.04-67.55v.2c.39-2.54.59-5.09.6-7.24,0-6.46-1.94-10.58-8.99-10.59-.59,0-1.57-.2-1.37-1.57.2-1.57.79-3.33.99-4.9.2-1.37,1.18-1.96,2.35-2.15,4.7.59,10.57.8,16.06.8,4.31,0,9.99-.18,14.49-.37,5.29-.19,10.77-.38,16.06-.37,34.07.05,43.84,16.31,45.59,31.98,2.32,19.98-13.76,40.52-36.68,46.75l10.75,18.23c5.86,10,10.95,13.92,18,13.93,1.17,0,1.96.59,1.76,1.76l-.79,4.7c-.2,1.37-2.16,2.15-3.72,2.15-3.92-.2-9.01-.21-14.1-.21-5.09,0-10.38-.01-13.51.18-2.35,0-3.33-1.77-4.11-3.53ZM1266.83,184.04l.59-2.74c1.96.39,2.54,1.57,2.15,3.92l-.99,4.7c-.4,2.74-1.77,3.91-4.51,3.91-14.49-1.39-28.98-1.41-43.87-.06-1.18,0-3.33-.4-3.33-2.75,6.66-.58,13.12-.77,19.58-.76,7.05,0,14.3.21,21.34,1.01h.39c2.35,0,4.31-.58,5.88-1.95,1.37-1.17,2.35-3.13,2.75-5.28ZM1262.76,147.02c-1.38,7.64-2.37,14.49-2.96,18.8l-.59,4.7-1.17-.59c0-.2-.59-.98-.58-2.94-.19-1.76,0-3.92.6-7.24l2.77-17.62,1.95,4.9ZM1262.59,131.94c2.57-14.88,5.52-30.93,7.49-39.16v-.2c.59-3.13,1.58-7.24,3.15-9.59,1.37-1.76,2.74-2.54,5.29-2.54,5.48,0,9.59.99,12.92,3.15-2.15-.39-4.5-.59-7.05-.6-8.22-.01-10.78,6.45-12.55,15.45-1.58,7.24-4.34,20.56-6.7,34.07l-2.55-.59ZM1327.34,183.92l.39-2.35c1.76.39,2.54,1.57,2.15,3.72l-.79,4.7c-.4,2.74-2.94,3.91-5.68,3.91-7.64-.4-20.95-.42-27.42-.04-2.55,0-3.92-.98-4.89-2.55,2.94-.19,7.44-.19,12.34-.18,5.29,0,10.38.01,13.9.21h.2c2.35,0,4.31-.58,5.88-1.56,2.16-1.37,3.53-3.32,3.92-5.87ZM1303.1,151.77l-2.15-3.53c9.6-3.71,18.03-10.16,24.11-18.38,7.26-9.98,10.6-21.53,9.25-32.69,0-.78-.19-1.57-.19-2.16.98,2.94,1.56,6.07,1.95,9.21,2.52,20.37-12,40.72-32.96,47.54Z"/>
      <path class="cls-1" d="M1408.37,70.25l6.86-4.49c2.35-1.37,4.31-.39,5.09,2.36,2.34,7.84,4.68,17.04,7.02,25.08v.59c0,1.76-2.94,3.13-5.49,3.13-2.15,0-4.11-.79-5.09-2.55-6.45-10.78-14.66-19.41-28.96-19.43-7.64,0-17.83,4.48-17.84,14.86-.01,9.01,8.99,16.07,19.36,23.92,13.11,9.81,28.56,20.99,28.54,39.2-.03,23.5-21.2,36.59-45.87,36.56-18.8-.03-42.68-7.3-42.66-26.3.02-11.36,8.64-17.22,16.28-17.21,3.92,0,7.64.99,10.18,4.71-4.51,1.95-7.06,6.45-7.06,11.35-.01,9.01,7.42,18.03,23.48,18.05,13.9.02,22.34-8.59,22.35-19.75.02-11.75-10.74-20.58-21.89-28.82-12.33-9.03-25.82-19.81-25.8-34.7.03-21.15,21.78-32.09,39.99-32.06,5.29,0,14.1,1.19,21.53,5.51ZM1423.92,152.52c0-1.76,0-3.33-.19-4.9,1.17,3.53,1.95,7.44,1.94,11.56-.03,24.67-22.18,38.55-47.83,38.52-9.2-.01-19.78-1.79-28.39-5.91,6.85,2.16,14.68,3.35,22.52,3.36,13.9.02,26.64-3.88,36.05-10.72,4.9-3.91,8.82-8.41,11.57-13.5,2.94-5.67,4.32-11.74,4.33-18.4ZM1361.65,154.2c1.17.98,1.95,2.35,2.74,3.92-4.51,1.37-7.45,4.89-7.85,9.19-1.17-1.76-1.76-3.72-1.75-5.68,0-4.11,4.12-7.04,6.86-7.43ZM1387.79,80.6c4.5,0,8.22.99,11.75,3.15-1.76-.39-3.72-.59-5.87-.6-6.46,0-14.69,3.51-15.68,11.34-1.17-1.76-1.95-3.33-1.95-5.09,0-2.74,1.18-4.89,3.53-6.46,2.35-1.37,5.29-2.34,8.23-2.34ZM1435.16,98.88v1.17c0,2.94-3.93,5.09-7.45,5.08-2.35,0-4.7-.79-6.07-2.55h.2c2.55,0,5.29-.78,7.25-2.14,2.74-1.76,4.31-4.3,4.32-7.04v-.78s1.75,6.27,1.75,6.27Z"/>
    </g>
  </g>
</svg>