<?xml version="1.0" encoding="UTF-8"?>
<svg id="Layer_2" data-name="Layer 2" xmlns="http://www.w3.org/2000/svg" viewBox="0 0 1489.94 1419.3">
  <defs>
    <style>
      .cls-1, .cls-2 {
        fill: #231f20;
      }

      .cls-3 {
        fill: none;
      }

      .cls-3, .cls-2 {
        fill-rule: evenodd;
      }
    </style>
  </defs>
  <g id="Bicyclist">
    <g>
      <g>
        <path class="cls-1" d="M718.82,348.8c-.71,3.52-1.45,7.58-2.22,12.19-.77,4.61-1.36,8.48-1.74,11.61-.06.19-.34.37-.82.53-.48.16-.94.24-1.39.24s-.9-.08-1.34-.24c-.45-.16-.67-.34-.67-.53-.25-4.42-1.35-8.48-3.3-12.2-1.95-3.71-4.55-5.57-7.82-5.58h-.67c-1.41,0-2.39.32-2.93.96-.54.64-.95,1.5-1.2,2.59l-11.01,45.72c-.13.51-.24,1.1-.34,1.78-.1.67-.15,1.17-.15,1.49,0,1.35.51,2.39,1.53,3.12,1.02.74,3.23,1.3,6.62,1.69.19,0,.32.22.38.66.06.44.09.76.09.95,0,.44-.11.98-.34,1.61s-.5.95-.82.95c-3.14,0-6.49-.09-10.07-.25-3.58-.17-6.65-.25-9.21-.25-2.49,0-5.4.07-8.73.23-3.33.16-6.43.23-9.31.23-.06,0-.16-.16-.29-.47-.13-.32-.19-.7-.19-1.14,0-.44.13-.96.39-1.57.26-.6.51-.93.77-1,4.1-.44,6.69-1.02,7.78-1.72s2.05-2.83,2.89-6.38l11-45.68c.32-1.47.27-2.43-.14-2.88-.42-.45-1.46-.67-3.12-.68h-.77c-3.39,0-6.97,1.85-10.72,5.55-3.75,3.71-6.37,7.45-7.84,11.22-.07.19-.32.4-.77.62-.45.22-.9.33-1.34.33-.64,0-1.15-.11-1.54-.34-.38-.22-.58-.43-.58-.62.96-3.77,1.93-7.69,2.9-11.76.96-4.06,1.74-7.76,2.32-11.08,2.24.39,5.77.71,10.61.97,4.83.26,12.3.4,22.42.41,8.7.01,15.66-.11,20.88-.36,5.22-.25,8.82-.56,10.8-.95Z"/>
        <path class="cls-1" d="M804.2,351.01c0,.38-.18.97-.53,1.76-.35.79-.69,1.19-1.01,1.19-3.71.38-6.05,1.13-7.01,2.25-.96,1.12-1.8,3.06-2.5,5.81l-10.16,42.16c-.13.54-.24,1.14-.34,1.81-.1.67-.15,1.17-.15,1.49,0,1.35.3,2.39.91,3.13.61.74,2.64,1.3,6.09,1.69.13,0,.24.22.33.66.1.44.14.76.14.95,0,.44-.18.98-.53,1.61-.35.63-.69.95-1.01.95-3.07,0-6.18-.09-9.31-.25-3.13-.17-5.95-.25-8.44-.25-2.5,0-5.09.07-7.77.23-2.69.16-5.47.23-8.35.23-.06,0-.16-.16-.29-.47-.13-.32-.19-.7-.19-1.14,0-.44.19-.96.58-1.57.38-.6.7-.93.96-1,3.2-.38,5.28-1.24,6.24-2.59.96-1.34,1.7-3.17,2.21-5.48l4.46-19.04-22.5-.03-4.55,19.04c-.13.51-.26,1.11-.39,1.78-.13.67-.19,1.17-.19,1.49,0,1.41.08,2.47.23,3.17.16.71,2.03,1.25,5.61,1.64.19,0,.32.22.38.66.06.44.1.76.1.95,0,.44-.18.98-.53,1.61-.35.63-.66.95-.91.95-3.14,0-6.06-.09-8.78-.25-2.72-.16-5.35-.25-7.91-.25-2.43,0-5.21.07-8.35.23-3.14.16-6.08.23-8.83.23-.13,0-.26-.16-.38-.47-.13-.32-.19-.7-.19-1.14,0-.44.19-.96.58-1.57.38-.6.71-.93.96-1,3.78-.44,6.18-1.24,7.2-2.39,1.03-1.15,1.83-3.05,2.41-5.71l10.06-42.16c.13-.58.26-1.14.38-1.68.13-.54.19-1.07.19-1.59,0-1.41-.3-2.45-.91-3.13-.61-.67-2.64-1.24-6.09-1.69-.19-.06-.32-.3-.38-.71-.06-.41-.09-.71-.09-.9,0-.44.16-.98.48-1.61.32-.63.64-.95.96-.95,3.07,0,6.17.09,9.31.25,3.13.17,5.95.25,8.44.25s5.08-.07,7.77-.23c2.69-.16,5.47-.23,8.35-.23.13,0,.26.1.38.29s.19.51.19.95c0,.44-.19,1.04-.58,1.8-.39.76-.71,1.14-.96,1.14-3.14.32-5.19,1.13-6.15,2.44-.96,1.31-1.73,3.19-2.31,5.62l-4.45,18.46,22.59.03,4.45-18.46c.13-.58.24-1.14.34-1.68.1-.54.15-1.07.15-1.59,0-1.67-.3-2.81-.91-3.42-.61-.61-2.25-1.08-4.94-1.4-.13-.06-.24-.3-.33-.71-.1-.41-.14-.71-.14-.9,0-.44.18-.98.53-1.61s.69-.95,1.01-.95c3.14,0,6.05.09,8.73.25,2.69.16,5.31.25,7.87.25,2.49,0,5.28-.07,8.35-.23,3.07-.16,6.05-.23,8.93-.23.06,0,.16.1.29.29.13.19.19.51.19.95Z"/>
        <path class="cls-1" d="M867.14,349.86c-.26,1.54-.49,3.33-.68,5.38-.19,2.05-.36,3.84-.49,5.38-.07,1.02-.15,2.7-.25,5.04-.1,2.34-.15,4.08-.15,5.23,0,.19-.27.37-.82.53-.54.16-1.01.24-1.39.24-.32,0-.74-.08-1.25-.24-.51-.16-.77-.34-.77-.53-.12-3.84-1.43-7.44-3.91-10.81-2.49-3.36-5.67-5.05-9.56-5.05h-2.68c-1.4,0-2.75.27-4.02.81-1.28.54-2.27,2.16-2.97,4.84l-4.66,19.1h4.14c3.21,0,5.78-.56,7.71-1.71,1.93-1.15,3.47-3.39,4.63-6.71.06-.19.35-.37.87-.53.51-.16.93-.24,1.25-.24.45,0,.94.08,1.49.24.54.16.75.34.62.53-.45,1.79-.93,3.66-1.45,5.61-.51,1.95-.96,3.73-1.35,5.33-.64,2.5-1.08,4.54-1.3,6.14-.23,1.6-.66,3.71-1.3,6.33-.13.26-.45.45-.96.57-.51.13-.9.19-1.15.19-.64,0-1.15-.08-1.54-.24-.38-.16-.58-.34-.58-.53.39-3.77-.14-6.43-1.58-7.97-1.44-1.54-3.6-2.31-6.48-2.31h-4.13s-4.72,19.76-4.72,19.76c-.13.51-.24,1.1-.34,1.78-.1.67-.15,1.17-.15,1.49,0,1.47.41,2.48,1.24,3.03.83.55,1.89.82,3.17.82h6.34c4.74.01,9.09-1.76,13.06-5.3,3.97-3.55,6.57-7.4,7.79-11.56,0-.13.22-.22.67-.29.45-.06.77-.09.96-.09.51,0,1.1.16,1.78.48.67.32.94.58.81.77-.77,2.75-1.67,6.27-2.7,10.56s-1.83,7.84-2.41,10.65c-3.52-.13-8.41-.25-14.68-.36-6.27-.1-11.32-.16-15.16-.16-3.84,0-8.89.05-15.16.17-6.27.12-11.2.21-14.78.27-.06,0-.16-.16-.29-.47-.13-.32-.19-.7-.19-1.14,0-.44.19-.96.58-1.56.38-.6.71-.93.96-1,3.78-.44,6.18-1.24,7.2-2.39,1.03-1.15,1.83-3.05,2.41-5.71l10.06-42.17c.13-.58.26-1.14.38-1.68.13-.54.19-1.07.19-1.59,0-1.41-.3-2.45-.91-3.13s-2.64-1.24-6.09-1.69c-.19-.06-.32-.3-.38-.71-.06-.41-.09-.71-.09-.9,0-.44.16-.98.48-1.61.32-.63.64-.95.96-.95,2.88.07,7.2.17,12.95.31,5.75.14,10.2.21,13.33.21,3.07,0,7.63-.04,13.67-.13,6.04-.09,10.63-.19,13.77-.32Z"/>
        <path class="cls-1" d="M787.74,533.21l-9.63,55.36-5.43,29.64c-2.72,15.43-6.92,42.62-9.14,58.54-.49,3.18-.99,5.88-.99,9.06-.01,7.84,2.68,12.99,11.5,13,1.47,0,1.96.74,1.71,2.21l-1.23,5.88c-.25,1.71-1.47,2.45-2.94,2.69-8.82-.75-18.37-1.25-27.44-1.26-8.82-.01-18.86.46-27.93,1.19-.74,0-1.71-.49-1.47-1.96l1.23-6.12c.25-1.96,1.23-2.69,3.19-2.69,11.02.02,14.96-8.8,17.42-21.29,3.7-18.86,7.16-37.72,10.61-58.29,2.72-15.68,12.1-72.75,13.83-85.98.25-1.71,1.23-2.94,2.94-2.69,3.92.5,10.29.99,19.6.76-16.16-8.6-22.77-13.26-28.4-16.94-19.58-13.01-39.65-25.04-62.44-25.07-37.97-.05-67.66,31.51-67.71,65.32-.03,22.78,13.42,38.24,31.55,38.26,15.43.02,24.02-11.48,24.04-21.77,0-2.7-.73-5.64-2.44-7.84,2.94-2.69,6.62-4.16,9.81-4.15,6.37,0,12,4.92,11.99,13.74-.02,18.37-23.31,28.14-44.14,28.12-28.17-.04-55.34-18.2-55.3-51.03.06-45.08,51.79-70.98,100.05-70.91,36.5.05,61.47,15.52,84.73,29.76,21.05,13.01,41.12,25.04,67.83,25.08,27.93.04,35.05-13.67,35.07-24.21.01-9.56-5.86-15.69-12.47-15.7h-.49c1.97-7.35,8.35-13.22,16.68-13.21,6.37,0,18.12,3.45,18.11,17.42-.03,24.5-32.65,46.02-73.56,45.96-16.66-.02-33.07-4.21-48.74-10.85ZM694.2,493.89c10.04.01,19.35,2.48,28.41,6.41-6.61-1.97-13.71-3.2-21.06-3.21-36.5-.05-65.21,30.29-65.25,62.88,0,2.21.24,4.17.48,6.37-1.71-4.41-2.68-9.31-2.67-14.7.04-31.36,27.52-57.78,60.1-57.74ZM709.05,569.86v-.98c1.47,2.45,2.2,5.64,2.19,9.31-.03,19.84-24.54,30.59-46.59,30.56-9.8-.01-19.35-2.23-27.92-6.41,6.61,1.97,13.47,3.2,20.58,3.21,12.25.02,24.75-3.15,34.07-8.53,5.39-3.18,9.56-6.85,12.51-11.25,3.44-4.9,5.16-10.28,5.17-15.92ZM781.62,707.64l.49-3.18c2.45.25,3.43,1.96,2.93,4.9l-1.23,5.88c-.49,3.43-2.21,4.9-5.64,4.89-18.13-1.74-36.26-1.76-54.88-.07-1.47,0-4.16-.5-4.16-3.44,8.08-.72,16.42-1.2,24.5-1.19,9.07.01,18.37.51,27.19,1.51,2.94.25,5.39-.97,7.35-2.44,1.72-1.71,2.95-3.92,3.44-6.86ZM794.1,540.33c.98.49,2.2.74,3.43,1.23-2.47,12.25-12.59,69.32-15.55,85.24-2.72,15.92-6.92,42.62-9.14,58.3-.25,1.96-.5,3.92-.74,5.63-.49,0-1.23-.25-1.47-.49-.25-.49-.73-1.23-.73-3.92-.24-2.21,0-4.9.75-8.82v-.25c1.98-14.94,6.18-41.64,9.14-58.05.99-5.88,2.96-16.66,5.18-29.64,3.21-17.15,6.91-37.97,9.13-49.23ZM919.11,493.46c1.47,2.7,2.2,5.88,2.19,10.05-.03,25.72-33.63,48.46-76.01,48.41-17.64-.02-32.82-3.96-46.29-9.86,4.16,1.48,8.08,2.71,12.25,3.45,8.82,2.22,17.39,3.21,26.7,3.22,21.31.03,41.41-5.58,56.61-15.6,7.6-4.64,13.49-10.52,17.66-16.88,4.66-6.61,6.88-13.96,6.89-21.06v-1.72Z"/>
        <path class="cls-1" d="M794.61,707.66c.25-1.96.99-4.16,1.23-6.12.25-1.96,1.23-2.69,3.19-2.69,10.54.01,14.71-9.78,17.42-21.29,3.94-17.63,12.58-66.87,15.06-84.5.49-2.69.74-5.88.75-8.57.01-8.08-2.43-13.48-11.25-13.49-.73,0-1.96-.25-1.71-1.96.25-1.96.99-4.16,1.23-6.12.25-1.71,1.47-2.45,2.94-2.69,8.08.99,17.39,1.25,26.46,1.26,9.07.01,18.62-.22,27.93-1.19.98,0,1.71.74,1.47,2.21-.25,1.96-.98,3.92-1.23,5.88s-1.23,2.69-3.19,2.69c-10.78-.01-14.71,9.78-17.42,21.29-3.94,17.63-12.58,66.87-15.06,84.5v-.25c-.49,3.18-.74,6.37-.75,9.31-.01,7.84,2.43,12.99,11.25,13,1.47,0,1.96.74,1.71,2.21-.25,1.96-.99,3.92-1.23,5.88-.25,1.71-1.47,2.45-2.94,2.69-8.57-.75-17.88-1.25-26.95-1.26-9.31-.01-18.38.46-27.44,1.19-.74,0-1.71-.25-1.47-1.96ZM861.5,708l.74-3.18c2.21.25,3.18,1.72,2.69,4.66l-1.23,5.88c-.49,3.43-2.21,4.9-5.64,4.89-17.64-1.74-35.77-1.76-53.9-.07-1.47,0-4.17-.25-4.16-3.44,7.84-.72,15.93-.96,24.01-.95,8.82.01,17.64.51,26.21,1.26h.49c5.39,0,9.8-3.17,10.79-9.05ZM886.18,569.36l.74-3.43c2.2.25,3.18,1.96,2.69,4.9l-1.23,5.88c-.5,3.43-2.21,4.9-5.64,4.89-9.56-.01-12.51,8.07-14.97,19.33-3.94,17.63-12.58,66.62-15.06,84.26-.25,1.96-.5,3.92-.5,5.88-.73-.25-1.22-.25-1.47-.74-.25-.25-.73-.98-.98-3.68,0-2.7.25-6.12.75-9.06,3.71-26.7,8.65-53.15,15.06-83.77.99-4.41,2.22-9.31,3.94-12.25,1.47-2.2,3.19-3.18,5.88-3.18,2.94,0,5.39-.73,7.35-2.44,1.72-1.47,2.94-3.67,3.44-6.61Z"/>
        <path class="cls-1" d="M957.24,562.6l14.09,86.01,46.42-84.95c.98-2.2,2.94-3.18,4.66-3.18,6.37.74,15.19,1.25,24.5,1.26,7.84.01,16.9-.47,25.48-1.19.98,0,1.71.74,1.47,2.21-.25,1.96-.99,3.92-1.23,5.88-.25,1.96-1.23,2.69-3.19,2.69-10.78-.01-14.71,9.78-17.42,21.29-3.94,17.63-12.58,66.87-15.06,84.5v-.25c-.49,3.18-.74,6.37-.75,9.31-.01,7.84,2.43,12.99,11.25,13,1.47,0,1.96.74,1.71,2.21-.25,1.96-.98,3.92-1.23,5.88-.25,1.71-1.47,2.45-2.94,2.69-8.82-.75-18.37-1.25-27.44-1.26-8.82-.01-18.87.46-27.93,1.19-.74,0-1.71-.49-1.47-1.96.25-1.96.99-4.16,1.23-6.12.25-1.96,1.23-2.69,3.19-2.69,10.54.01,14.71-9.78,17.42-21.29,3.94-17.63,12.58-66.87,15.06-84.5.25-2.45,1.24-8.33,1.25-15.92l-69.02,128.53h-1.96s-25.31-128.41-25.31-128.41c-2.47,12.74-2.96,13.96-2.96,14.94-4.19,18.61-12.58,67.11-14.81,84.5v-.25c-.49,2.7-.74,5.63-.75,8.08-.01,8.58,3.41,14.21,17.13,14.23,1.47,0,1.96.74,1.71,2.21-.25,1.96-.99,3.92-1.23,5.88-.25,1.71-1.47,2.45-2.94,2.69-8.82-.75-18.37-1.25-27.44-1.26-8.82-.01-18.87.46-27.93,1.19-.73,0-1.71-.49-1.47-1.96.25-1.96.99-4.16,1.23-6.12.25-1.96,1.23-2.69,3.19-2.69,13.72.02,20.59-8.79,23.3-21.28,3.94-17.63,12.58-66.62,14.81-84.5v.24c.49-2.69.74-5.39.75-7.84.01-8.82-3.66-14.46-17.13-14.48-.74,0-1.96-.25-1.71-1.96.25-1.96.99-4.16,1.23-6.12.25-1.71,1.47-2.45,2.94-2.69,4.41.5,17.15,1.25,29.89,1.27,8.82.01,17.64-.22,24.5-1.19,2.94,0,4.16.74,4.9,2.21ZM936.71,707.61l.74-3.18c2.2.49,3.18,1.96,2.69,4.9l-1.23,5.88c-.49,3.43-2.21,4.9-5.64,4.89-18.13-1.74-36.26-1.76-54.88-.07-1.47,0-4.16-.5-4.16-3.44,8.08-.72,16.42-.96,24.5-.95,8.82.01,17.88.27,26.7,1.26h.49c2.94,0,5.39-.97,7.35-2.44,1.72-1.71,2.95-3.92,3.44-6.86ZM903.8,580.16c.24.49.49.74.73,1.23h-1.71c-1.47,0-3.92-.5-4.16-3.19,2.45.49,4.41.99,5.14,1.97ZM929.97,615.72l1.95,9.56c-3.95,21.31-8.39,47.76-9.88,59.77-.25,1.47-.49,3.18-.5,4.65-.73-.25-.98-.49-1.47-.98-1.47-1.72-.97-6.37-.23-11.27v-.25c1.49-12.49,6.18-40.17,10.13-61.48ZM1013.76,615.59c-.99,5.39-1.98,11.02-2.96,16.66l-44.7,83.97h-5.39s-.73-3.44-.73-3.44c1.47-.24,2.7-1.22,3.43-2.45l50.35-94.75ZM975.28,624.85l-9.23-56.85c.24.49,1.96,1.23,2.2,1.96l8.75,53.91-1.72.98ZM1055.53,707.76l.74-3.18c2.2.49,3.18,1.96,2.69,4.9l-1.23,5.88c-.5,3.43-2.21,4.9-5.64,4.89-18.13-1.74-36.26-1.76-54.88-.07-1.47,0-4.16-.5-4.16-3.44,8.09-.72,16.42-.96,24.5-.95,8.82.01,17.88.27,26.7,1.26h.49c2.94,0,5.39-.97,7.35-2.44,1.72-1.71,2.94-3.92,3.44-6.86ZM1076.77,581.62c-9.55-.01-12.5,8.07-14.97,19.33-3.94,17.63-12.58,66.62-15.06,84.26-.25,1.96-.5,3.92-.74,5.63-.49,0-.98-.25-1.22-.49-.24-.25-.98-1.23-.97-3.68,0-2.7.25-6.12.75-9.06,2.47-17.64,11.11-66.38,15.06-84.01.74-4.41,1.97-9.31,3.94-12,1.47-2.45,3.19-3.18,5.88-3.18,2.94,0,5.39-.97,7.35-2.44,1.72-1.71,2.95-3.92,3.44-6.86l.74-3.18c2.2.25,3.18,1.96,2.69,4.9l-1.23,5.88c-.49,3.43-2.21,4.9-5.64,4.89Z"/>
        <path class="cls-1" d="M1065.09,708.02l1.48-6.61c.49-1.71,1.23-2.2,3.19-2.2,10.54.01,14.71-10.76,17.42-22.03,3.94-17.63,12.09-65.64,14.57-83.03.49-2.94.74-6.12.75-8.82.01-8.08-2.43-13.48-11.25-13.49-.73,0-1.96-.25-1.71-1.96l1.23-6.61c.25-1.71,1.72-2.45,3.19-2.69,15.92.76,31.11,1.02,46.55,1.04,15.19.02,30.62-.2,46.79-.92,2.45-.24,3.92.74,4.65,2.7l12.2,38.24c.24,1.96-1.47,2.94-3.92,2.94-2.45,0-4.9-.5-6.37-3.19-7.82-14.22-21.03-29.43-41.61-29.46h-6.12c-10.78-.02-14.71,9.77-17.42,21.28-1.73,7.84-4.69,22.29-5.67,28.66-.99,5.14.72,7.84,6.36,7.85l14.45.02c5.63,0,11.28-4.64,12.51-9.54l.98-3.92c.49-1.71,1.47-2.94,3.19-2.94h9.06c.74.01,1.71.5,1.71,1.73-3.45,12.24-6.9,30.13-7.41,41.88-.49,1.71-1.72,2.45-3.19,2.45h-9.07c-1.47-.01-1.96-.5-1.71-1.97l.74-4.41c.99-5.88-2.44-11.52-10.28-11.53l-13.72-.02c-4.9,0-7.35,2.2-8.09,6.85-.74,3.43-3.7,21.8-4.45,27.92-1.73,12.49.21,22.29,20.55,22.32h7.59c19.35.04,38.49-20.52,47.09-35.7,1.23-2.2,3.44-4.16,7.6-4.16,2.94,0,3.18,1.47,2.69,2.45l-18.93,46.04c-.98,1.96-2.7,2.94-4.9,2.93-19.11-.76-37.73-1.28-56.35-1.3-17.15-.02-34.55.44-52.68,1.15-.74,0-2.2-.25-1.71-1.96ZM1188.07,709.9l17.94-43.83c2.45.49,4.41,1.97,3.42,4.17l-18.93,46.03c-1.23,3.18-3.68,4.41-7.11,4.4-36.99-1.52-71.54-1.81-109.02-.15-1.47,0-4.17-.25-4.41-3.19,16.66-.71,32.83-1.18,49.74-1.16,17.64.02,36.01.54,56.1,1.3,4.9,0,9.8-2.19,12.26-7.58ZM1143.32,651.53v.49s-9.07-.01-9.07-.01c-3.43,0-5.15,1.46-5.64,4.89-.74,3.43-3.7,22.04-4.45,27.92-.25,1.22-.25,2.45-.5,3.67-.24-.25-.49-.49-.73-.98-2.2-2.45-1.46-6.62-.97-10.29.74-5.88,3.71-24.25,4.45-27.68v-.74s14.21.02,14.21.02c.98,0,1.71.49,2.2.98.25.25.73.98.49,1.72ZM1152.48,579.27c6.12,0,11.51,1.73,15.92,4.19-2.69-.49-5.63-.99-8.57-.99h-6.12c-9.55-.02-12.5,8.06-14.97,19.33-1.23,5.14-2.71,13.47-4.19,20.08h-3.43c.99-6.37,3.7-19.6,5.43-27.19.74-4.41,2.22-9.31,3.94-12.24,1.47-2.2,3.19-3.18,5.88-3.18h6.12ZM1171.73,656.96c.5-10.29,2.97-25.23,6.67-37.97,2.45.49,3.43,1.96,2.93,4.9-3.69,12.49-6.9,29.15-7.41,41.15-.5,3.43-2.21,4.9-5.64,4.89h-9.07c-2.69-.02-4.16-1-4.4-3.2h6.12c5.88.02,9.56-3.65,10.79-9.78ZM1210.51,606.3c.98-1.22,1.47-2.45,1.48-3.92l2.2,6.62c1.71,5.15-11.03,7.58-14.7,1.94,4.9,0,9.07-1.7,11.03-4.64Z"/>
        <path class="cls-1" d="M793.6,914.7c3.13,44.35,39.01,137.49,98.06,137.57,24.25.03,32.85-13.43,32.86-24.7.01-9.07-5.86-15.2-12.72-15.21h-.25c1.97-7.35,8.35-13.22,16.43-13.21,6.61,0,18.37,3.46,18.35,17.42-.03,24.99-34.36,47.73-69.64,47.68-67.13-.09-98.63-80-104.9-153.51-.48-3.92.75-8.82,3.2-8.82,32.34-1.43,51-27.86,51.03-55.06.03-20.33-11.7-44.11-41.34-44.15-12.74-.02-18.39,9.53-21.1,21.29-8.88,44.58-16.04,82.3-21.23,122.71v-.25c-.49,3.19-.74,6.37-.75,9.31-.01,7.84,2.43,12.99,11.25,13,1.47,0,1.96.74,1.71,2.21-.25,1.96-.99,3.92-1.23,5.88-.25,1.71-1.47,2.45-2.94,2.69-9.06-.75-18.86-1.25-27.93-1.26-9.07-.01-19.11.46-28.42,1.19-.73,0-1.71-.49-1.47-1.96.25-1.96.99-4.16,1.23-6.12.25-1.96,1.23-2.69,3.19-2.69,11.02.01,14.96-8.8,17.42-21.29l4.69-23.02c2.22-11.02,4.68-22.53,6.66-33.8,1.97-11.02,3.46-22.78,5.19-34.78l4.7-30.86c1.73-11.76-5.85-24.75-33.29-24.79-36.26-.05-74.03,29.54-74.08,67.76-.03,20.58,13.42,37.01,31.06,37.04,16.42.02,24.51-11.48,24.53-21.77,0-2.69-.73-5.64-2.44-7.84,2.94-2.69,6.62-4.16,9.8-4.15,6.61,0,13.47,6.63,11.74,16.67-2.72,15.92-24.04,25.2-44.62,25.17-27.2-.04-54.61-19.18-54.57-49.56.06-46.3,51.55-73.92,99.57-73.86,5.39,0,14.21.26,25.23.77,17.64.76,40.67,1.52,62.47,1.55,49.49.07,65.38,27.77,66.08,54.97.7,28.42-21.39,57.79-59.62,63.37-2.94,0-3.92,2.2-3.93,4.4ZM718.03,809.74c1.71.74,3.43,1.47,4.65,2.46-3.67-.99-8.08-1.48-13.23-1.49-35.04-.05-71.58,28.57-71.63,65.32,0,1.71,0,3.43.24,5.15-1.46-3.92-2.44-8.58-2.43-13.48.05-34.54,35.12-60.22,66.47-60.18,6.37,0,11.76.75,15.92,2.23ZM710.58,883.96c1.96,3.19,2.69,7.35,1.94,12.5-3.21,17.63-24.78,27.16-47.08,27.13-9.31-.01-18.62-1.99-26.7-6.16,6.12,1.97,12.74,2.96,19.35,2.97,12.25.02,24.01-2.66,33.08-7.55,5.15-2.69,9.32-5.87,12.26-9.78,3.68-4.16,5.89-8.81,6.88-13.96v-.25c.25-1.71.25-3.43.25-4.9ZM760.68,977.86l.5-3.18c2.45.25,3.43,1.72,2.93,4.66l-1.23,5.88c-.5,3.43-2.21,4.9-5.64,4.89-18.62-1.74-36.75-1.76-55.86-.08-1.47,0-4.16-.25-4.16-3.43,8.33-.72,16.66-.96,24.99-.95,9.06.01,17.88.51,27.19,1.26h.49c2.94,0,5.39-.73,7.35-2.44,1.72-1.47,2.95-3.67,3.44-6.61ZM784.43,810.07c7.11,0,12.74,1.73,17.39,4.43-3.18-.74-6.37-1.23-10.04-1.24-11.76-.02-16.43,8.06-18.65,19.33-8.88,44.58-16.04,82.05-21.23,122.47-.25,2.2-.5,3.92-.74,5.88-.49,0-.98-.25-1.22-.49-.24-.49-.98-1.23-.97-3.92,0-2.45.25-6.12.75-9.06,5.2-41.4,12.6-79.85,21.23-122.22,2.47-12.49,7.12-15.18,13.49-15.17ZM864.49,846.68c0-3.92-.48-7.35-.96-11.03,1.95,6.37,2.92,12.99,3.16,19.36.7,29.89-21.15,60.49-61.83,65.82h-1.96c0,.24.24.49.24.73.48,6.62,1.45,14.21,3.4,22.3-2.68-9.8-4.38-19.12-5.35-26.71,9.31-1.46,17.89-4.39,25.74-8.3,8.09-4.4,15.2-10.02,20.85-16.63,5.64-6.36,9.82-13.71,12.77-21.54,2.71-7.84,4.19-15.92,3.95-24ZM955.88,1024.67c-.03,25.48-35.59,48.95-72.09,48.9-13.23-.02-24.99-2.73-35.76-7.4,9.06,2.71,18.37,4.19,28.41,4.2,18.62.02,37.74-5.58,52.69-15.61,7.36-5.13,13.24-10.76,17.42-17.13,4.66-6.85,7.12-13.96,7.13-21.31v-1.47c1.47,2.45,2.2,5.88,2.19,9.8Z"/>
        <path class="cls-1" d="M850.36,977.74c.25-1.96.99-4.16,1.23-6.12.25-1.96,1.23-2.69,3.19-2.69,10.54.01,14.71-9.78,17.42-21.29,3.94-17.63,12.58-66.87,15.06-84.5.49-2.69.74-5.88.75-8.57.01-8.08-2.43-13.48-11.25-13.49-.73,0-1.96-.25-1.71-1.96.25-1.96.99-4.16,1.23-6.12.25-1.71,1.47-2.45,2.94-2.69,8.08.99,17.39,1.25,26.46,1.26,9.07.01,18.62-.22,27.93-1.19.98,0,1.71.74,1.47,2.21-.25,1.96-.99,3.92-1.23,5.88-.25,1.96-1.23,2.69-3.19,2.69-10.78-.01-14.71,9.78-17.42,21.29-3.94,17.63-12.58,66.87-15.06,84.5v-.25c-.49,3.19-.74,6.37-.75,9.31-.01,7.84,2.43,12.99,11.25,13,1.47,0,1.96.74,1.71,2.21-.25,1.96-.99,3.92-1.23,5.88-.25,1.71-1.47,2.45-2.94,2.69-8.57-.75-17.88-1.25-26.95-1.26-9.31-.01-18.38.47-27.44,1.19-.74,0-1.71-.25-1.47-1.96ZM917.24,978.07l.74-3.18c2.2.25,3.18,1.72,2.69,4.66l-1.23,5.88c-.49,3.43-2.21,4.9-5.64,4.89-17.64-1.74-35.77-1.76-53.9-.07-1.47,0-4.16-.25-4.16-3.44,7.84-.72,15.93-.96,24.01-.95,8.82.01,17.64.51,26.21,1.26h.49c5.39,0,9.8-3.17,10.79-9.05ZM941.92,839.44l.74-3.43c2.2.25,3.18,1.96,2.69,4.9l-1.23,5.88c-.49,3.43-2.21,4.9-5.64,4.89-9.56-.01-12.51,8.07-14.97,19.33-3.94,17.63-12.58,66.62-15.06,84.26-.25,1.96-.5,3.92-.5,5.88-.73-.25-1.22-.25-1.47-.74-.24-.25-.73-.98-.97-3.68,0-2.7.25-6.12.75-9.06,3.71-26.7,8.65-53.15,15.06-83.77.99-4.41,2.22-9.31,3.94-12.25,1.47-2.2,3.19-3.18,5.88-3.18,2.94,0,5.39-.73,7.35-2.44,1.72-1.47,2.94-3.67,3.44-6.61Z"/>
        <path class="cls-1" d="M956.19,978.61c-8.33-.01-18.62.46-28.42,1.19-.74,0-1.71-.49-1.47-1.96.25-1.96.99-4.16,1.23-6.12.25-1.96,1.23-2.69,3.19-2.69,10.54.01,14.96-9.54,17.42-21.29,4.19-18.37,12.58-67.11,15.06-84.5v.24c.49-2.94.74-6.12.75-8.82.01-8.08-2.43-13.48-11.25-13.49-.74,0-1.96-.25-1.71-1.96.25-1.96.99-4.16,1.23-6.12.25-1.71,1.47-2.45,2.94-2.69,7.1.74,14.7,1,22.29,1.01,5.88,0,13.48-.23,19.6-.46,7.35-.24,14.95-.47,22.79-.46,42.38.06,63.41,31.44,63.37,63.78-.06,41.16-30.5,89.63-91.01,85.87-12-.75-23.52-1.5-36.01-1.52ZM1091.05,894.02c0-4.9-.48-9.56-1.21-14.21,2.2,7.11,3.41,14.95,3.4,22.54-.06,42.38-31.48,92.08-93.71,88.32-20.33-1.25-38.71-2.26-63.94-.33-1.47,0-4.16-.25-4.16-3.44,8.58-.48,16.66-.71,24.99-.7,12,.02,23.27.52,35.52,1.27,2.2.25,4.41.25,6.61.25,14.7.02,28.18-2.9,40.44-8.52,11.03-5.13,20.84-12.71,28.94-22.26,7.36-8.81,13.25-18.85,17.43-30.11,3.69-10.53,5.66-21.8,5.68-32.82ZM975.1,946.79c-.49,2.94-.74,5.63-.75,8.33-.01,8.33,3.17,13.72,17.62,13.99h1.47c38.71,2.01,61.79-40.09,61.84-76.35.03-26.21-12.67-51.47-40.6-51.5-14.94-.02-21.82,8.79-24.53,21.28-3.94,17.39-12.58,66.62-15.06,84.5v-.25ZM1014.92,848.6c5.88,0,11.02,1.49,15.43,4.19-2.45-.74-5.14-.99-8.08-.99-13.48-.02-19.61,8.06-22.08,19.33-3.94,17.63-12.58,66.62-15.06,84.26-.25,1.71-.49,3.18-.5,4.65-.74-.25-1.22-.74-1.47-.98-1.47-1.72-.97-6.86-.23-11.27,2.47-17.39,11.11-66.38,15.06-83.77,1.73-8.57,6.63-15.43,16.92-15.41Z"/>
        <path class="cls-1" d="M1078.69,978.04l1.48-6.61c.49-1.71,1.23-2.2,3.19-2.2,10.54.01,14.71-10.76,17.42-22.03,3.94-17.63,12.09-65.64,14.57-83.03.49-2.94.74-6.12.75-8.82.01-8.08-2.43-13.48-11.25-13.49-.73,0-1.96-.25-1.71-1.96l1.23-6.61c.25-1.71,1.72-2.45,3.19-2.69,15.92.76,31.11,1.02,46.55,1.04,15.19.02,30.62-.2,46.79-.92,2.45-.24,3.92.74,4.65,2.7l12.2,38.24c.24,1.96-1.47,2.94-3.92,2.93-2.45,0-4.9-.5-6.37-3.19-7.82-14.22-21.03-29.43-41.61-29.46h-6.12c-10.78-.02-14.71,9.77-17.42,21.28-1.73,7.84-4.68,22.29-5.67,28.66-.99,5.14.72,7.84,6.36,7.85l14.45.02c5.63,0,11.28-4.64,12.51-9.54l.99-3.92c.49-1.71,1.47-2.94,3.19-2.93h9.06c.74.01,1.71.5,1.71,1.73-3.45,12.25-6.9,30.12-7.41,41.88-.49,1.71-1.72,2.45-3.19,2.45h-9.07c-1.47-.01-1.96-.5-1.71-1.97l.74-4.41c.99-5.88-2.43-11.52-10.27-11.53l-13.72-.02c-4.9,0-7.35,2.2-8.09,6.85-.74,3.43-3.7,21.8-4.45,27.92-1.73,12.49.22,22.29,20.55,22.32h7.59c19.35.04,38.49-20.52,47.09-35.7,1.23-2.2,3.43-4.16,7.6-4.15,2.94,0,3.18,1.47,2.69,2.45l-18.93,46.03c-.98,1.96-2.7,2.94-4.9,2.93-19.11-.76-37.73-1.28-56.35-1.3-17.15-.02-34.55.44-52.68,1.15-.74,0-2.21-.25-1.71-1.96ZM1201.68,979.92l17.94-43.83c2.45.49,4.41,1.97,3.43,4.17l-18.93,46.03c-1.23,3.18-3.68,4.41-7.11,4.4-36.99-1.52-71.54-1.81-109.02-.15-1.47,0-4.16-.25-4.41-3.19,16.66-.71,32.83-1.18,49.74-1.16,17.64.02,36.01.54,56.1,1.3,4.9,0,9.8-2.19,12.26-7.58ZM1156.92,921.55v.49h-9.06c-3.43-.02-5.15,1.45-5.64,4.88-.74,3.43-3.7,22.04-4.45,27.92-.25,1.22-.25,2.45-.5,3.67-.24-.25-.49-.49-.73-.98-2.2-2.45-1.46-6.62-.97-10.29.74-5.88,3.71-24.25,4.45-27.68v-.73s14.21.02,14.21.02c.98,0,1.71.49,2.2.98.24.25.73.98.49,1.72ZM1166.08,849.29c6.12,0,11.51,1.73,15.92,4.19-2.7-.49-5.63-.99-8.57-.99h-6.12c-9.55-.02-12.5,8.06-14.97,19.33-1.23,5.14-2.71,13.47-4.19,20.08h-3.43c.99-6.37,3.7-19.6,5.43-27.19.74-4.41,2.22-9.31,3.94-12.24,1.47-2.2,3.19-3.18,5.88-3.18h6.12ZM1185.33,926.98c.5-10.29,2.97-25.23,6.67-37.96,2.45.49,3.43,1.96,2.93,4.9-3.69,12.49-6.9,29.15-7.4,41.15-.5,3.43-2.21,4.9-5.64,4.89h-9.07c-2.69-.02-4.16-1-4.41-3.2h6.12c5.88.02,9.56-3.65,10.79-9.78ZM1224.11,876.32c.98-1.22,1.47-2.45,1.48-3.92l2.2,6.62c1.71,5.15-11.04,7.58-14.7,1.94,4.9,0,9.07-1.7,11.03-4.64Z"/>
        <path class="cls-1" d="M1302.62,975.89c-2.44-5.39-4.64-9.56-6.35-13.24-4.89-10.05-8.06-17.16-16.37-37.02-1.22-2.7-.73-4.41,1.72-4.41,1.96,0,3.92-.24,4.65-.24,24.75-2.17,44.38-25.91,40.49-50.9-1.94-13.48-8.54-28.43-33.28-28.46-11.51-.01-15.69,9.53-18.16,21.29-3.94,17.88-12.58,65.64-15.06,84.5-.49,3.18-.99,5.88-.99,9.06-.01,7.84,2.68,12.99,11.5,13,1.47,0,1.96.74,1.71,2.21-.25,1.96-.99,3.92-1.23,5.88-.25,1.71-1.47,2.45-2.94,2.69-8.82-.75-18.37-1.25-27.44-1.26-8.82-.01-18.87.46-27.93,1.19-.74,0-1.71-.49-1.47-1.96.25-1.96.99-4.16,1.23-6.12.25-1.96,1.23-2.69,3.19-2.69,10.54.01,14.96-9.53,17.42-21.29,4.19-18.61,12.83-67.11,15.06-84.5v.24c.49-3.18.74-6.37.75-9.06.01-8.08-2.43-13.23-11.25-13.25-.74,0-1.96-.25-1.71-1.96.25-1.96.99-4.16,1.23-6.12.25-1.71,1.47-2.45,2.94-2.69,5.88.74,13.23,1,20.09,1.01,5.39,0,12.5-.23,18.13-.47,6.62-.24,13.48-.47,20.09-.46,42.63.06,54.85,20.41,57.03,40.01,2.91,24.99-17.22,50.69-45.89,58.49l13.44,22.8c7.33,12.5,13.7,17.41,22.52,17.42,1.47,0,2.45.74,2.2,2.21l-.99,5.88c-.25,1.71-2.7,2.69-4.66,2.69-4.9-.25-11.27-.26-17.64-.27-6.37,0-12.99-.02-16.91.22-2.94,0-4.16-2.21-5.14-4.42ZM1279.35,978.31l.74-3.43c2.45.49,3.18,1.96,2.69,4.9l-1.23,5.88c-.5,3.43-2.21,4.9-5.64,4.89-18.13-1.74-36.26-1.76-54.88-.07-1.47,0-4.16-.5-4.16-3.44,8.33-.72,16.42-.96,24.5-.95,8.82.01,17.88.27,26.7,1.26h.49c2.94,0,5.39-.73,7.35-2.44,1.72-1.47,2.95-3.92,3.44-6.61ZM1274.26,932c-1.73,9.55-2.96,18.13-3.71,23.51l-.74,5.88-1.47-.74c0-.25-.73-1.23-.73-3.68-.24-2.21,0-4.9.75-9.06l3.46-22.04,2.44,6.13ZM1274.04,913.13c3.21-18.62,6.91-38.7,9.38-48.99v-.25c.74-3.92,1.97-9.06,3.94-12,1.72-2.2,3.43-3.18,6.62-3.18,6.86,0,12,1.24,16.17,3.94-2.69-.49-5.63-.74-8.82-.75-10.29-.01-13.49,8.07-15.71,19.33-1.97,9.06-5.42,25.72-8.39,42.62l-3.18-.74ZM1355.05,978.17l.49-2.94c2.2.49,3.18,1.96,2.69,4.66l-.99,5.88c-.5,3.43-3.68,4.89-7.11,4.89-9.55-.5-26.21-.53-34.3-.05-3.18,0-4.9-1.23-6.12-3.19,3.68-.24,9.31-.23,15.44-.22,6.62,0,12.99.02,17.39.27h.25c2.94,0,5.39-.73,7.35-1.95,2.7-1.71,4.42-4.16,4.91-7.34ZM1324.72,937.95l-2.69-4.41c12.01-4.64,22.56-12.71,30.17-22.99,9.08-12.48,13.27-26.93,11.57-40.9,0-.98-.24-1.96-.24-2.7,1.22,3.68,1.95,7.6,2.44,11.52,3.15,25.48-15.01,50.94-41.24,59.48Z"/>
        <path class="cls-1" d="M1456.42,835.96l8.58-5.62c2.94-1.71,5.39-.48,6.37,2.95,2.93,9.8,5.85,21.32,8.78,31.37v.73c0,2.21-3.68,3.92-6.87,3.91-2.69,0-5.14-.99-6.36-3.19-8.07-13.49-18.34-24.28-36.23-24.3-9.55-.01-22.3,5.6-22.32,18.59-.02,11.27,11.24,20.1,24.21,29.92,16.4,12.27,35.73,26.26,35.7,49.05-.04,29.4-26.52,45.78-57.39,45.74-23.52-.03-53.4-9.14-53.37-32.9.02-14.21,10.81-21.54,20.36-21.53,4.9,0,9.55,1.24,12.73,5.9-5.64,2.44-8.83,8.07-8.84,14.2-.02,11.27,9.28,22.55,29.37,22.58,17.39.02,27.94-10.74,27.96-24.71.02-14.7-13.44-25.74-27.39-36.05-15.42-11.29-32.31-24.79-32.28-43.41.04-26.46,27.25-40.14,50.03-40.11,6.61,0,17.64,1.49,26.94,6.9ZM1475.88,938.88c0-2.21,0-4.17-.24-6.13,1.46,4.41,2.44,9.31,2.43,14.46-.04,30.87-27.75,48.23-59.84,48.18-11.51-.02-24.74-2.24-35.51-7.4,8.57,2.71,18.37,4.19,28.17,4.2,17.39.02,33.33-4.85,45.1-13.41,6.13-4.89,11.04-10.52,14.48-16.88,3.68-7.1,5.41-14.69,5.42-23.02ZM1397.97,940.98c1.47,1.23,2.45,2.94,3.42,4.9-5.64,1.71-9.32,6.11-9.81,11.5-1.47-2.21-2.2-4.66-2.2-7.11,0-5.15,5.16-8.81,8.59-9.3ZM1430.68,848.91c5.63,0,10.29,1.24,14.69,3.94-2.2-.49-4.65-.74-7.35-.74-8.08-.01-18.38,4.38-19.62,14.18-1.47-2.21-2.44-4.17-2.44-6.37,0-3.43,1.48-6.12,4.42-8.08,2.94-1.71,6.62-2.93,10.29-2.93ZM1489.94,871.77v1.47c0,3.67-4.91,6.36-9.32,6.36-2.94,0-5.88-.99-7.59-3.2h.25c3.19,0,6.62-.97,9.07-2.68,3.43-2.2,5.4-5.38,5.4-8.81v-.98s2.2,7.84,2.2,7.84Z"/>
      </g>
      <path d="M284.51,527.66c.72-10.02,4.3-36.67-20.76-57.79-26.84-22.61-33.12-46.24-30.73-57.45,1.62-7.61,11.34-20.83,24.08-.17,14.17,22.99,40.98,17.94,50.86-.03.04-.08.41-.75.82-1.64l-.04-.09h0S185.5,119.77,185.5,119.77l-1.04-2.44-1.01-2.37c-5.85-13.47-12.82-12.04-16.55-12.29-5.31-.36-5.96-3.63-6.33-11.57-.65-13.71-5.4-25.07-43.21-78.15C109.49,1.89,138.6-.01,145.01,6.49c.78.89,1.74,1.99,2.88,3.29h0s2.66-2.97,2.66-2.97c.16.25.34.49.53.73-.19-.24-.37-.48-.53-.73-1.01-1.56-1.32-3.34-.17-5.16,1.32-2.1,4.55-2.12,6.67-.53,2.07,1.57,4.03,4.95,2.31,7.62-1.2,1.86-4.38,2.31-6.74.35-.12-.1-.25-.21-.37-.32l-2.34,3.33s0,.02.02.03c2.6,2.97,5.77,6.63,9.31,10.7l2.54-2.85c.15.23.31.45.48.67-.17-.22-.34-.44-.48-.67-1.01-1.56-1.32-3.34-.17-5.16,1.32-2.1,4.55-2.12,6.67-.53,2.07,1.57,4.03,4.95,2.31,7.62-1.2,1.86-4.38,2.31-6.74.35-.12-.1-.25-.21-.37-.32l-2.24,3.19s.04.05.07.08c2.95,3.39,6.11,7.02,9.36,10.76l2.61-2.92c.17.27.36.52.57.77-.21-.25-.4-.51-.57-.77-1.01-1.56-1.32-3.34-.17-5.16,1.32-2.1,4.55-2.12,6.67-.53,2.07,1.57,4.03,4.95,2.31,7.62-1.2,1.86-4.38,2.31-6.74.35-.12-.1-.25-.21-.37-.32l-2.31,3.28s.03.03.04.05c3.1,3.56,6.26,7.2,9.38,10.8,0,0,.01.01.02.02l2.7-3.06c.15.25.33.48.52.72-.19-.23-.37-.47-.52-.72-1.01-1.56-1.32-3.34-.17-5.16,1.32-2.1,4.55-2.12,6.67-.53,2.07,1.57,4.03,4.95,2.31,7.62-1.2,1.86-4.38,2.3-6.74.35-.12-.1-.25-.21-.37-.32l-2.34,3.48c3.18,3.66,6.3,7.26,9.26,10.66l2.59-2.9v-.08c-.98-1.55-1.28-3.32-.14-5.13,1.32-2.1,4.55-2.12,6.67-.53,2.07,1.57,4.03,4.95,2.31,7.62-1.2,1.86-4.38,2.31-6.74.35-.12-.1-.25-.21-.37-.32l-2.32,3.29s.05.05.07.08c3.45,3.98,6.64,7.65,9.37,10.79,0,.01.02.02.03.03l2.75-3.15c.15.24.33.47.51.7-.18-.23-.36-.46-.51-.7-1.01-1.56-1.32-3.34-.17-5.16,1.32-2.1,4.55-2.12,6.67-.53,2.07,1.57,4.03,4.95,2.31,7.62-1.2,1.86-4.38,2.31-6.74.35-.12-.1-.25-.21-.37-.32l-2.47,3.49s0,0,0,0c4.1,4.72,6.82,7.88,7.39,8.55,4.18,4.93-6.43,11.65-3.81,17.73l.71,1.55,1.05,2.27c11.85,25.68,80.6,174.68,116.2,251.86l.24.26c.87,1.2,1.61,2.07,2.24,2.84,13.64,16.69,47.95-12.12,31.21-45.54-2.69-5.37-3.46-9.63-2.86-12.78-.07-.04-.14-.07-.21-.11-1.24-.88-1.85-1.65-1.2-2.64-.99-1.33-2.17-1.82-3.59-.73-.03.02-.05.03-.08.05,0,0-1.49-.75-1.35-1.18.59-1.79,3.73-6,5.59-6.94.4-.2,1.42,1.08,1.42,1.08-.02.05-.04.09-.06.14-.79,1.92-.11,2.19,1.47,3.39.63-1.03,1.95-.72,3.53.67.04.03.08.05.12.08,6.57-1.95,17.4,2.09,25.64,12.18,15.46,18.94,18.1,42.12,19.9,59.23,4.02,38.24,1.38,52.21,44.14,88.98,43.5,37.41,78.33,85.87,19.4,135.78-11.06,9.37-28.39,19.53-46.68,28.45.43,1.01.41,1.74-.44,2.24.27,1.59,1.06,2.55,2.73,2.3.08-.01.15-.01.24-.03,0,0,.99,1.34.67,1.66-1.34,1.32-6.05,3.65-8.13,3.64-.45,0-.77-1.6-.77-1.6.04-.03.07-.06.11-.1,1.58-1.35,1.1-1.91.23-3.69-.75.46-1.5.12-2.15-.85l.53-.25c-16.89,7.83-34.04,14.4-47.37,18.13-46.36,12.96-95.72-16.07-88.45-116.63Z"/>
      <path class="cls-1" d="M370.94,717.45s25.37,49.97,29.98,79.95c4.61,29.98,15.38,82.26,15.38,168.36s.77,102.24,1.54,132.22c.77,29.98,1.54,65.34,1.54,65.34l10.76-3.84s3.07-71.49,3.84-89.94c.77-18.45.77-113.01-.77-149.91-1.54-36.9-8.46-187.58-66.11-246l3.84,43.82Z"/>
      <path class="cls-1" d="M382.8,514.93l9.02,4.64s2.73,1.64,3.28.55c.55-1.09-1.09-3.55-3.82-4.92l-2.73-1.37s6.01-6.29,4.92-11.2c-1.09-4.92-7.92-12.29-17.48-18.58-9.56-6.28-18.63-10.67-25.95-6.28-1.37.82-3.82,6.83-3.82,6.83l.55,1.91s-2.19-.27-3.01,0c-.82.27-3.55,4.37-3.55,7.1s1.09,5.74,1.09,5.74c0,0-2.73-3.01-6.01-3.01s-12.84,1.09-14.2,1.09-4.1,3.55-2.73,6.01c0,0-4.92.27-10.65,1.91-5.74,1.64-13.93,7.65-18.58,12.84-4.64,5.19-8.74,8.47-12.02,11.2-3.28,2.73-5.46,3.01-7.37,3.01s-5.19.55-5.19.55c0,0,1.64-2.19-1.37-2.46l-3-.27-.27-2.73,1.09-4.1-3.55-3-.27-5.74s-3.55-1.64-6.01-1.91c-2.46-.27-4.92.27-4.92,1.09s.27,7.37.27,7.37c0,0-4.37.82-4.37,1.91s-.82,3.55-.82,3.55c0,0-4.41-.67-7.53-.34-3.12.34-5.58-1.3-7.22-1.3s-5.74,2.18-5.74,2.18h-4.92s-9.02-8.74-11.75-12.56c-2.73-3.83-17.48-20.76-24.04-23.76-6.56-3.01-13.93-5.46-13.93-5.46,0,0-1.64-3-4.92-3h-3.28s-3.83-1.64-5.19-1.64h-1.36s-2.46,1.09-3.55,1.09h-2.73s-8.74,4.1-13.39,6.56c-4.64,2.46-5.74,3.82-5.74,3.82,0,0-10.11,3.01-16.12,8.47-6.01,5.46-9.84,12.84-10.93,15.3-1.09,2.46-1.64,6.28-1.64,6.28l-4.92-.27s0-.82-1.09-1.37c-1.09-.55-3.82-.55-3.82-.55,0,0,.82,0-.55-1.64-1.37-1.64-4.37-3-6.56-3s-5.46,1.64-6.55,2.46c-1.09.82-3.82,4.1-3.82,4.1,0,0-14.48-6.01-23.22-8.19-8.74-2.19-19.12-3.01-21.03,2.18-1.91,5.19,2.73,9.83,14.75,12.29,12.02,2.46,26.77,4.64,30.59,4.37,3.83-.27,6.28,0,7.38,0s3.83,1.37,7.38,1.91c3.55.55,17.76-.55,21.31-2.19,3.55-1.64,7.65-7.92,10.65-13.93,3-6.01,19.39-19.67,22.67-20.49,3.28-.82,5.46-.82,5.46-.82,0,0,1.37,1.36,4.1,1.36s9.02-.55,9.02-.55c0,0,13.11,5.74,16.94,8.47,3.82,2.73,5.74,5.74,5.74,5.74l2.73,6.28s-3.28,1.09-3.28,3.82,1.91,5.74,3.82,6.56c1.91.82,6.56,1.64,6.56,1.64,0,0,5.74,2.19,7.1,2.46l1.37.27s6.28,3.28,11.2,4.64c4.92,1.37,8.19,1.37,8.19,1.37,0,0,6.55,1.37,8.74,3.82,2.18,2.46,4.1,3.82,4.1,3.82v14.75s-5.46,7.65-2.46,19.94l-1.09,16.12s-5.46-.27-8.19,2.73c-2.73,3-7.65,8.74-12.29,10.93-4.64,2.19-5.74,3.28-8.74,3.28s-7.37,2.46-5.46,4.37c0,0,1.09,4.65,3.83,5.74,2.73,1.09,6.01.54,6.01.54l3.28.82s2.18,1.09,9.29-1.09c7.1-2.18,29.51-1.57,32.78-1.09,9.29,1.36,20.21,1.91,42.34,17.21,0,0,0-5.19-.55-10.38-.54-5.19-2.46-14.21.55-20.49,0,0-7.1-4.64-12.84-6.56,0,0,3.28-3.28,3.82-5.74.55-2.46-3.01-4.92-3.01-4.92l-12.56-7.1s-2.73,0-3.28,1.09c0,0-3.01-4.92-1.37-12.02,1.64-7.1,2.73-9.29,2.73-9.29l18.85,3.28s3.83-1.09,1.09-4.92c-2.73-3.82-8.47-9.83-11.2-10.11-2.73-.27-9.29-.82-12.29,5.74-3,6.56-4.1,8.74-4.1,8.74l1.37-18.85s1.91-.55,2.73-1.09c.82-.55,1.91-1.91,1.91-1.91,0,0,10.38.82,14.75-1.91,4.37-2.73,9.02-10.38,16.66-15.84,7.65-5.46,14.2-12.84,26.49-12.56,0,0-1.09,5.19-.27,5.19s10.11.82,12.57.27c2.46-.55,4.1-1.09,4.1-1.09v-1.37l3.01,1.37v3.28l10.93,8.74,2.18-.54s6.28,4.64,9.56,12.02c3.28,7.38,7.37,19.67,10.38,22.13,3.01,2.46,6.83,8.47,20.76,11.2,0,0-3.82-8.19-1.37-13.11,0,0-3.55,0-6.55-2.18-3.01-2.18-3.55-4.64-6.28-12.29-2.73-7.65-11.2-26.5-17.48-30.05v-2.46s13.66,3.55,19.94-2.46ZM105.55,517.93c-3.82,5.46-4.37,4.37-4.37,4.37,0,0,.27-3.28,3.28-8.74,3-5.46,10.65-11.75,10.65-11.75-2.46,3-5.74,10.65-9.56,16.12Z"/>
      <path class="cls-1" d="M129.84,1418.4c-20.83-3.05-39.57-13.75-55.54-30.08h0c-16.01-16.35-29.47-38.33-40.44-64.74h0C11.97,1270.74.02,1200.01,0,1120h0c0-40.47,3.08-83.31,9.55-127.35h0c23.28-157.15,82.69-287.02,152.14-344.07h0c23.22-18.97,48-29.93,73.18-29.94h0c4.14,0,8.29.3,12.41.91h0c20.83,3.05,39.57,13.75,55.54,30.08h0c16.01,16.35,29.47,38.32,40.44,64.74h0c21.89,52.83,33.85,123.56,33.87,203.57h0c0,40.47-3.08,83.31-9.55,127.35h0c-23.28,157.14-82.69,287.02-152.15,344.07h0c-23.21,18.97-48,29.93-73.18,29.94h0c-4.14,0-8.28-.3-12.41-.9h0ZM15.65,1120c0,58.82,6.65,112.35,18.78,156.59h0c12.1,44.25,29.78,79.13,51.05,100.76h0c14.19,14.45,29.72,23.05,46.64,25.55h0c3.36.5,6.74.74,10.14.74h0c20.48.01,41.91-8.97,63.27-26.42h0c21.34-17.41,42.35-43.16,61.58-75.52h0c38.5-64.7,69.86-155.71,84.99-258.7h0c6.37-43.3,9.39-85.4,9.39-125.08h0c0-58.82-6.65-112.35-18.78-156.59h0c-12.1-44.25-29.79-79.13-51.05-100.77h0c-14.19-14.45-29.72-23.05-46.64-25.55h0c-3.37-.5-6.75-.74-10.13-.74h0c-20.48-.01-41.91,8.97-63.28,26.41h0c-21.34,17.41-42.35,43.16-61.58,75.51h0c-38.5,64.71-69.86,155.72-84.98,258.71h0c-6.37,43.3-9.39,85.39-9.39,125.07h0Z"/>
      <path class="cls-1" d="M413.24,1375.35c-6.86-1.17-13-4.6-18.06-9.45h0c-5.07-4.86-9.18-11.13-12.47-18.42h0c-6.56-14.58-9.97-33.38-9.98-54.39h0c0-11.25,1-23.15,3.08-35.33h0c7.17-41.05,24.25-74.76,45.66-90.49h0c7.18-5.2,15.14-8.39,23.43-8.4h0c1.77,0,3.57.15,5.35.46h0c6.86,1.17,13.01,4.6,18.06,9.45h0c5.07,4.86,9.17,11.14,12.47,18.42h0c6.56,14.58,9.97,33.37,9.98,54.39h0c0,11.25-1,23.14-3.08,35.33h0l-6.75-1.15,6.75,1.16c-7.17,41.04-24.25,74.76-45.66,90.48h0c-7.18,5.2-15.14,8.39-23.43,8.4h0c-1.79,0-3.57-.16-5.35-.46h0ZM429.49,1178.37c-5.5,3.97-11.16,10.04-16.41,17.87h0c-10.53,15.64-19.39,38.14-23.77,63.83h0c-1.96,11.43-2.89,22.56-2.89,33.01h0c-.14,29.28,7.66,53.11,18.23,62.92h0c3.49,3.32,7.05,5.17,10.88,5.84h0c1.02.17,2.03.26,3.05.26h0c4.69,0,9.89-1.81,15.41-5.8h0c5.5-3.96,11.16-10.04,16.41-17.87h0c10.53-15.64,19.39-38.14,23.77-63.83h0c1.96-11.44,2.88-22.57,2.88-33.01h0c.13-29.28-7.66-53.11-18.22-62.91h0c-3.48-3.32-7.05-5.18-10.92-5.85h0c-.99-.17-1.98-.26-3.01-.26h-.02c-4.68,0-9.88,1.82-15.39,5.8h0Z"/>
      <path class="cls-1" d="M218.54,629.17s-35.84,154.22-46.7,203.1c-10.86,48.88-36.38,164.54-36.38,164.54,0,0-9.78,2.71-12.49,3.8-2.72,1.09-6.52,5.43-6.52,5.43l-8.24,84.85s-27.6,6.38-35.75,6.38-27.15-3.8-30.95-5.97l-9.77-.54s-1.63,2.17-1.09,4.34c.54,2.17,1.09,5.43,1.09,5.43l2.71,11.4s26.07,2.17,28.78,2.17,34.21,3.26,36.93,3.26l3.8,7.6,1.09,3.26s4.89,5.97,8.15,5.43c3.26-.54,5.97-15.75,5.97-15.75l4.35.54s3.26-4.34,3.26-10.32l-5.97-4.35-4.34-.54,12.53-82.01,8.72,1.15s.66,8.39,5.1,10.7c4.44,2.31,9.38,2.14,12.51-1.48,3.13-3.62,3.29-4.94,3.29-4.94l5.93-.49s3.13,1.48,4.28.99l1.15-.49,2.14-1.15,36.05,5.27s1.32,2.47,2.14,3.13c.82.66,3.13.66,3.13.66l.49-.66,7.24,1.81s1.32,11.68,4.44,13.99c3.13,2.31,7.57,4.45,11.36,1.98,3.79-2.47,5.6-7.08,5.6-7.08,0,0,9.22-.66,11.36-.66s2.8-.16,2.8-.82-.16-2.64-.16-2.64l6.91.83s3.13-5.1,3.95-11.85c.82-6.75,3.29-42.96,4.11-52.18.82-9.22,2.14-23.21,2.14-23.21,0,0,3.13-1.48,6.25-3.95,3.13-2.47,6.42-3.62,6.42-3.62,0,0,14.15,1.15,14.65,1.15h.49l1.48.49s27.98,4.28,31.43,4.94c3.46.66,5.6.66,6.26.66s1.81-.5,2.8-.99c.99-.49,2.96-.99,2.96-.99,0,0,4.45-.33,4.94-1.48.49-1.15,2.31-2.14,2.31-2.14,0,0,2.31-2.63,3.13-3.62.82-.99,1.98-.82,1.98-3.95s-.82-5.1-.82-5.1l7.57-5.76,1.02-17.24s-4.8,4.89-7.27,6.21c-2.47,1.32-8.23,3.79-11.03,5.43-2.8,1.65-7.41,9.38-9.22,10.7-1.81,1.32-8.23,4.11-19.92,2.96-11.68-1.15-31.27-3.95-36.37-5.6-5.1-1.65-20.74-8.4-21.56-8.4s-6.91.83-7.74,2.64c-.83,1.81.33,9.55.49,10.2.16.66,4.44,1.15,4.44,1.15l3.13.82-.66,9.22.66,4.28s-1.32,20.9-2.47,32.59c-1.15,11.69-2.8,27.32-3.29,28.14-.49.82-1.15,1.32-1.81,1.32s-9.55-3.62-9.55-3.62c0,0-1.98-8.23-5.27-9.05-3.29-.82-10.04,1.98-12.18,6.91-2.14,4.94-3.13,8.06-3.13,8.06l-2.3,1.15s-1.98.99-2.96.33c-.99-.66-2.63-2.3-4.12-2.3s-2.63,0-3.95,2.3c0,0-34.24-4.11-34.73-4.11s-2.14-2.63-3.62-3.46c-1.48-.83-2.64-1.65-3.95-1.15-1.32.5-2.63.99-2.63.99-1.32-.33-3.29-8.89-5.43-11.52-2.14-2.64-3.37-4.02-7.24-4.94-3.46-.82-7.08.33-9.09,1.9,0,0,17.13-70.17,19.62-80.91,4.84-20.85,22.45-91.96,26.69-112.83,4.24-20.87,40.77-171.88,40.77-171.88l-12.3-.88Z"/>
      <polygon class="cls-1" points="248.78 631.35 242.91 1015.88 251.22 1019.3 262.47 633.8 248.78 631.35"/>
      <path class="cls-1" d="M460.31,1269.56s-2.43-7.5-4.05-9.52c-1.62-2.02-3.65-2.83-5.07-3.24-1.42-.4-3.24-.81-3.24-.81,0,0-2.43-38.49-3.44-53.27-1.01-14.79-2.43-35.85-2.43-35.85-2.63-4.86-10.33-13.37-11.95-14.18l-7.09,2.84s-7.29,5.07-9.52,7.9c-2.23,2.84-3.04,5.88-4.86,17.02-1.82,11.14-5.47,52.06-6.28,62.59-.81,10.53-3.65,25.73,7.09,29.57,0,0,1.01,8.31,6.89,8.1,5.87-.2,8.71-6.08,8.71-6.08l4.66,1.02,5.06.61,2.23-.2,2.63.81s.61,10.33,5.87,10.53c5.27.2,7.5-5.67,9.12-8.91,0,0,2.43-.2,2.64-.81l.2-.61,3.04.61s1.42-5.06,1.62-7.7l-1.82-.4ZM439.99,1268.44s-1.77-.89-2.66-1.24c-.89-.36-1.95,0-1.95,0l-1.95-1.24c-1.95-1.24-1.95.53-2.48.53s-2.48-.18-2.48-.18l-1.24-1.77c.18-3.19.71-8.15-1.95-10.99-2.66-2.83-6.38-1.59-8.86-.35-2.48,1.24-5.85,6.74-5.85,6.74-1.42-.53-.71-3.9-.53-8.51.18-4.61,9.75-72.5,9.75-72.5l7.09-3.55c1.95.53,3.72,6.91,4.79,15.24,1.06,8.33,7.44,64.17,8.15,69.13.71,4.96,1.77,3.37,1.95,5.14.18,1.77-1.77,3.54-1.77,3.54Z"/>
      <path class="cls-1" d="M513.61,442.84c-2.28-6.52-3.59-10.76-3.59-12.07s-.33-15.98-1.3-22.18c0,0,1.63-1.63,1.63-7.5s-1.3-37.83-3.26-51.86c-1.96-14.02-5.88-29.53-7.5-35.88-3.59-14.02-12.06-41.42-20.22-49.9-8.15-8.48-20.22-14.02-33.6-22.18-13.37-8.15-35.55-26.42-40.11-30.66l6.2-11.74s2.61-4.57,3.91-9.46c1.31-4.89,2.61-12.39,2.61-12.39,0,0,2.61-13.05,3.59-16.96l.98-3.91s-.33-9.46-.33-12.39.65-4.57.98-7.5c.33-2.94.65-6.52.65-6.52,0,0,9.46-.33,12.39-.98,2.94-.65,5.22-.98,5.54-2.94.33-1.96,0-4.24-1.63-5.54,0,0,6.2-2.61,8.48-5.54,2.28-2.93,2.93-5.22.33-8.81-2.61-3.59-5.22-6.2-7.5-9.46-2.28-3.26-8.48-8.81-18.26-14.35-9.79-5.54-17.94-9.13-24.79-13.05-6.85-3.91-22.5-8.81-35.55-7.83-13.05.98-22.83,3.26-32.29,5.54-9.46,2.28-23.48,4.89-27.4,9.46-3.91,4.57-7.83,13.37-8.15,17.94-.33,4.57-1.3,19.24-1.3,22.18s2.93,10.76,2.93,10.76c0,0-.65,3.91-2.28,5.22-1.63,1.3-1.96,4.89-1.96,4.89,0,0,2.61,9.46,3.59,11.74.98,2.28,1.3,4.57.33,5.87-.98,1.3,2.93.98,2.93.98v4.24s1.63,2.94,2.61,3.59c.98.65,10.11,9.78,10.11,9.78,0,0,4.57,3.91,4.57,7.17s.65,14.68.65,14.68c0,0-5.55,8.48-6.2,9.46,0,0-14.68,2.94-23.81,5.54-9.13,2.61-18.59,4.89-28.7,7.17-10.11,2.28-26.09,8.15-36.53,17.61-10.44,9.46-24.79,25.44-29.35,31.31-4.57,5.87-12.39,20.22-18.92,30.66-6.52,10.44-15.16,24.6-17.29,30.98l-2.61,1.63-6.2,9.46s1.3,3.91,2.61,4.57c0,0-6.52,7.5-12.07,12.72-5.54,5.22-17.61,17.29-28.7,31.31-11.09,14.02-26.74,36.53-33.92,47.29-7.18,10.76-11.74,23.81-16.63,28.7-4.89,4.89-8.48,8.81-10.76,10.76-2.28,1.96-3.26,4.89-3.26,4.89,0,0-5.54,5.22-11.09,9.13-5.54,3.91-9.78,7.18-12.07,10.76-2.28,3.59-7.5,14.68-7.5,20.87s3.59,16.96,11.74,16.31c0,0,3.91,7.83,15.98,6.2,0,0,8.15,3.26,13.7,0,0,0,2.65-.41,4.24-.58.04.65.41,5.58,1.63,7.1,1.3,1.63,5.87,1.96,5.87,1.96,0,0,3.26-3.59,4.24-4.57.98-.98,8.81-4.24,11.74-7.18,2.94-2.94,8.81-14.35,9.13-16.31.33-1.96-2.61-9.78-4.89-13.7-2.28-3.91-2.28-5.87-2.28-6.85s1.31-6.2.98-9.46c0,0,19.57-19.9,27.07-24.46,7.5-4.57,24.46-17.61,30.33-24.13,5.87-6.52,11.09-15.66,15.98-20.22,4.89-4.57,15.33-13.7,19.57-19.57,4.24-5.87,11.41-15.65,13.37-17.94,1.96-2.28,5.87-8.15,5.87-8.15,0,0,3.91.33,11.09-8.48,0,0,6.2-4.57,8.48-5.54,2.28-.98,2.93-3.26,4.89-5.54,1.96-2.28,3.26-2.61,3.26-2.61,0,0,4.89,5.54,4.57,7.83-.33,2.28-3.26,9.13-1.96,10.76,1.3,1.63,5.22,5.22,5.22,6.2s.98,5.87,0,8.81c-.98,2.93-5.87,8.15-5.22,11.42.65,3.26,4.57,7.5,3.91,10.44-.65,2.94-3.59,15-4.57,22.18-.98,7.17-3.26,18.26-3.26,21.53s2.61,20.22,3.26,27.4c.65,7.17-.65,22.83.98,27.72,1.63,4.89,6.2,10.11,6.2,10.11l.33,1.96s-1.63,2.28-2.28,3.59c-.65,1.31-4.24,14.68-4.89,17.61-.65,2.93-.98,6.2-1.3,7.83-.33,1.63.33,3.91-.98,4.89-1.31.98-1.63,2.61-2.61,3.91-.98,1.3-3.91,7.17-6.52,9.46-2.61,2.28-5.22,5.22-6.2,7.5-.98,2.28-.98,3.91-.98,4.89s-2.61,8.15-2.61,8.15c0,0-10.44,14.35-17.29,27.07-6.85,12.72-15.66,28.05-21.53,36.53-5.87,8.48-4.89,16.96-7.83,25.77-2.94,8.81-6.2,21.53-9.78,29.03-3.59,7.5-9.46,21.2-9.46,22.5,0,0-5.87,12.07-8.81,16.63-2.93,4.57-6.2,20.88-6.52,26.75-.33,5.87.98,11.74.98,11.74,0,0-1.3,9.46-3.26,17.28-1.96,7.83-2.93,12.4-7.83,24.46-4.89,12.07-10.44,30.33-13.05,51.2-2.61,20.87-2.61,42.07-3.91,51.2-1.31,9.13-4.89,29.35-7.18,38.49-2.28,9.13-1.96,10.76-2.61,12.72-.65,1.96-1.3,4.24-1.3,4.24,0,0-4.24,6.52-4.24,8.81s.33,6.52.33,6.52c0,0-2.61,4.57-2.61,6.52l-.33,5.22s-2.28,4.24-2.28,6.2-.33,3.26-.33,3.26c0,0-6.85,2.61-10.44,4.89-3.59,2.28-6.2,4.57-10.11,10.11-3.91,5.55-8.48,9.45-8.48,11.09s-1.3,4.89-.98,5.87c.33.98,2.61,3.26,2.61,3.26,0,0-5.54,5.22-7.5,8.48-1.96,3.26-5.22,6.85-5.22,6.85,0,0-5.87,5.22-6.2,8.48-.33,3.26-1.63,5.87,1.3,7.18,2.93,1.3,17.94,8.81,35.22,8.48,17.29-.33,27.72-2.61,39.14-6.52,11.41-3.91,21.85-5.22,28.7-8.8,6.85-3.59,15.65-10.44,15.65-10.44,0,0,1.96-4.57-.65-10.11-2.61-5.54-9.13-16.63-9.13-16.63,0,0-5.87-15.98-5.22-17.29.65-1.3,1.96-13.04,6.2-31.96,4.24-18.92,11.74-48.6,15-61.64,3.26-13.05,9.46-24.79,14.35-30.99,4.89-6.2,9.59-28.79,14.02-42.07,3.59-10.76,4.89-23.48,5.87-31.96l.98-8.48s3.91-12.39,3.59-15.66c0,0,10.11-12.07,14.35-19.9,4.24-7.83,7.18-12.72,7.18-12.72,0,0,11.74,5.22,13.05,4.57,1.3-.65,10.44-18.92,13.37-24.79,2.93-5.87,13.04-25.11,15.33-29.03,2.28-3.91,4.27-8.72,8.81-13.05,6.85-6.52,12.07-14.35,17.94-26.09,5.87-11.74,9.13-21.2,9.13-21.2,0,0,1.63,1.3,1.63,2.61v13.05c0,1.63,2.94,12.72,2.94,14.35s.98,28.7,3.91,40.77c2.93,12.07,10.11,34.25,10.11,42.07s1.31,30,.98,34.57c-.33,4.57-2.61,13.37-4.24,19.24-1.63,5.87-4.24,11.74-3.59,15.33,0,0-2.28,5.22-2.61,7.83,0,0-9.13,3.26-15.66,6.85-6.52,3.59-15.98,14.35-15.98,14.35l2.94,5.54s10.44-7.5,13.37-9.13c2.94-1.63,9.46-3.26,9.46-3.26,0,0-.65,2.61-2.93,5.55-2.28,2.93-7.83,9.45-15,15-7.18,5.54-16.96,10.11-18.59,15.98-1.63,5.87-1.3,10.11-1.3,10.11,0,0-2.93,4.56-2.28,8.15.65,3.59,17.94,10.44,31.96,13.05,14.02,2.61,38.49,4.24,43.7,2.28,5.22-1.96,7.18-8.16,11.41-11.41,4.24-3.26,10.11-5.55,11.09-5.87.98-.33,5.87-4.24,8.48-7.18,2.61-2.93,3.59-6.52,3.59-7.83v-7.83s1.31-13.37,1.96-18.92c.65-5.54.98-12.07,0-18.59-.98-6.52-4.57-12.72-4.57-12.72,0,0-1.96-1.3-1.96-3.26s-1.96-18.92,1.3-35.22c3.26-16.31,7.83-55.12,9.46-66.54,1.63-11.41,4.57-25.44,2.61-38.48-1.96-13.05-3.26-19.24-5.87-24.13-2.61-4.89-3.52-8.76-4.24-14.02-.44-3.19,6.59-2.94,14.75-5.88,8.15-2.93,17.86-19.89,23.73-22.5,5.87-2.61,10.44-7.83,12.72-8.48,2.28-.65,7.5-2.61,9.78-2.94,2.28-.33,5.22.98,8.15-2.28,2.94-3.26,2.94-6.85,4.24-9.13,1.3-2.28,6.52-12.39,7.18-15.66.65-3.26.65-6.85.65-6.85,0,0-.65-14.35.98-15,1.63-.65,3.26-.65,7.5-2.93,4.24-2.28,6.52-5.87,7.5-7.5.98-1.63,3.59-3.59,6.52-7.83,2.93-4.24,2.18-4.63,6.2-10.76,6.85-10.44,22.18-36.2,27.07-47.29,4.89-11.09,8.15-18.59,8.48-28.37.33-9.78.33-14.02.33-14.02,0,0,1.31-8.15-.98-14.68ZM452.88,483.22c-1.68,3.77-3.36,14.68-3.77,17.61-.42,2.94-2.93,8.39-2.93,8.39l.6-14.46s.76-11.59,1.22-16.6c.49-5.37.34-16.42.34-21.46s-.61-12.52-1.03-13.77c-.42-1.26-1.96-17.57-1.54-19.25.42-1.68.42-15.1,0-18.03,0,0,7.97,30.61,9.23,35.64,1.26,5.03,1.68,14.26,2.52,15.93.84,1.68,1.68,5.45,1.68,5.45,0,0-4.61,16.77-6.29,20.55Z"/>
      <g>
        <path class="cls-3" d="M352.84,1033.57c-28.29,215.44-125.06,384.53-216.14,377.68-91.08-6.85-141.98-187.05-113.69-402.49,28.29-215.44,125.06-384.53,216.14-377.68,91.08,6.85,141.98,187.05,113.69,402.49Z"/>
        <path class="cls-2" d="M241.78,658.38c5.1.88,10.05,2.35,14.85,4.38l2.41-12.5c-4.05-1.72-8.21-3.05-12.47-3.97l-4.79,12.09h0ZM160.78,679.44l-2.04,14.43c5.25-5.27,10.55-10.02,15.9-14.21l-.45-11.93c-4.51,3.53-8.98,7.44-13.42,11.71h0ZM157.84,694.79l-4.09-8.23c-4.37,4.63-8.69,9.62-12.96,14.93l1.61,10.76c5.07-6.32,10.23-12.15,15.44-17.46h0ZM82.24,804.24l1.26,12.88c4.08-10.03,8.33-19.69,12.72-28.95l-3.19-8.16c-3.7,7.81-7.31,15.89-10.8,24.23h0ZM82.81,818.84l-6-1.2c-3.31,8.45-6.52,17.13-9.6,26.03l4.08,5.95c3.67-10.6,7.51-20.87,11.52-30.79h0ZM32.04,987.17l4.23,7.9c1.81-12.2,3.85-24.22,6.11-36.02l-5.07-2.21c-1.91,9.97-3.66,20.09-5.27,30.33h0ZM35.97,997.08l-6.3,6.16c-1.4,10.16-2.63,20.24-3.67,30.24l5.46-.45c1.24-11.86,2.74-23.85,4.5-35.94h0ZM23.58,1179.16l6.06.79c-.97-10.84-1.69-21.97-2.13-33.36l-5.6,4.34c.38,9.59.93,19.01,1.67,28.23h0ZM29.81,1181.82l-4.91,11.86c.92,8.96,2.01,17.72,3.28,26.26l5.38-6.74c-1.5-10.15-2.75-20.62-3.75-31.39h0ZM59.18,1328.84l6.26-6.52c-3.47-6.81-6.74-14.1-9.78-21.84l-4.63,9.72c2.56,6.53,5.28,12.75,8.14,18.64h0ZM66.04,1323.49l-2.21,14.4c2.96,5.44,6.06,10.55,9.3,15.32l3.86-11.21c-3.85-5.67-7.5-11.85-10.95-18.5h0ZM129.29,1396.04l4.79-12.09c-5.1-.88-10.05-2.35-14.85-4.38l-2.41,12.5c4.05,1.72,8.21,3.05,12.47,3.97h0ZM134.92,1384.08l1.09,13.07c4.27.49,8.57.57,12.87.25l1.3-12.69c-5.1.37-10.19.17-15.25-.63h0ZM215.08,1362.88l2.04-14.43c-5.25,5.27-10.55,10.02-15.9,14.21l.45,11.93c4.51-3.53,8.98-7.44,13.42-11.71h0ZM218.02,1347.54l4.09,8.23c4.37-4.63,8.69-9.62,12.96-14.94l-1.61-10.76c-5.07,6.32-10.23,12.15-15.44,17.46h0ZM293.61,1238.09l-1.27-12.88c-4.08,10.03-8.33,19.69-12.72,28.95l3.19,8.16c3.7-7.81,7.31-15.89,10.8-24.23h0ZM293.05,1223.48l6,1.2c3.31-8.45,6.52-17.13,9.6-26.04l-4.08-5.95c-3.67,10.6-7.51,20.87-11.52,30.79h0ZM343.81,1055.16l-4.23-7.9c-1.81,12.2-3.85,24.22-6.11,36.02l5.07,2.21c1.91-9.97,3.66-20.09,5.27-30.33h0ZM339.88,1045.24l6.3-6.16c1.4-10.16,2.62-20.24,3.67-30.24l-5.46.45c-1.24,11.86-2.74,23.85-4.5,35.94h0ZM352.28,863.17l-6.06-.79c.97,10.84,1.69,21.98,2.13,33.36l5.6-4.34c-.38-9.59-.93-19.01-1.67-28.23h0ZM346.05,860.51l4.91-11.86c-.92-8.96-2.01-17.72-3.28-26.26l-5.38,6.73c1.5,10.15,2.75,20.62,3.75,31.39h0ZM316.68,713.48l-6.26,6.52c3.47,6.81,6.74,14.1,9.78,21.84l4.63-9.72c-2.56-6.53-5.28-12.75-8.14-18.64h0ZM309.82,718.84l2.21-14.4c-2.96-5.44-6.06-10.55-9.3-15.32l-3.86,11.21c3.85,5.67,7.5,11.85,10.95,18.5h0ZM239.85,645.18c-4.27-.49-8.56-.57-12.87-.25l-1.3,12.69c5.1-.37,10.19-.17,15.25.63l-1.09-13.07h0ZM257.52,663.15c4.8,2.11,9.44,4.79,13.91,7.99l2.93-12.2c-4.64-3.33-9.45-6.1-14.43-8.29l-2.41,12.5h0ZM272.28,671.76l2.93-12.2c4.69,3.45,9.2,7.47,13.53,12.03l-3.41,11.77c-4.17-4.4-8.53-8.27-13.05-11.6h0ZM286.11,684.2l3.41-11.77c4.36,4.68,8.52,9.91,12.48,15.65l-3.86,11.22c-3.82-5.53-7.84-10.58-12.04-15.09h0ZM320.75,743.28l4.63-9.72c3.09,7.99,5.95,16.43,8.57,25.28l-4.93,8.82c-2.53-8.54-5.29-16.68-8.27-24.38h0ZM329.5,769.27c2.51,8.6,4.78,17.59,6.82,26.95l5.19-7.82c-2.12-9.71-4.48-19.04-7.08-27.95l-4.93,8.82h0ZM336.7,797.99l5.19-7.82c2.09,9.74,3.93,19.86,5.51,30.32l-5.38,6.73c-1.53-10.08-3.3-19.84-5.31-29.24h0ZM348.43,897.84l5.6-4.34c.42,11.57.57,23.39.45,35.44l-5.62,3.07c.12-11.61-.03-23.01-.44-34.17h0ZM348.84,934.18c-.15,11.5-.55,23.2-1.23,35.08l5.57-1.77c.7-12.31,1.12-24.45,1.27-36.38l-5.62,3.07h0ZM347.48,971.47l5.57-1.77c-.72,12.15-1.71,24.46-2.98,36.91l-5.46.45c1.22-12.01,2.18-23.88,2.87-35.59h0ZM333.05,1085.48c-2.29,11.83-4.8,23.45-7.51,34.82l4.79,3.5c2.81-11.8,5.41-23.84,7.79-36.11l-5.07-2.21h0ZM325.02,1122.46l4.79,3.5c-2.88,11.95-5.97,23.64-9.26,35.05l-4.46-4.75c3.17-11,6.15-22.27,8.93-33.8h0ZM315.49,1158.33l4.46,4.75c-3.35,11.5-6.9,22.71-10.63,33.59l-4.08-5.95c3.6-10.49,7.02-21.3,10.25-32.39h0ZM278.81,1255.87l3.19,8.16c-4.52,9.44-9.18,18.48-13.97,27.08l-2.69-9.13c4.62-8.29,9.12-17.01,13.47-26.11h0ZM264.47,1283.54c-4.64,8.25-9.4,16.07-14.26,23.44l2.16,10c5.04-7.64,9.98-15.76,14.78-24.31l-2.69-9.13h0ZM249.3,1308.36l2.16,10c-5.05,7.58-10.2,14.69-15.44,21.29l-1.61-10.76c5.05-6.37,10.02-13.22,14.89-20.53h0ZM200.22,1363.43l.45,11.93c-5.43,4.18-10.9,7.8-16.39,10.84l.14-12.32c5.3-2.93,10.57-6.43,15.8-10.45h0ZM183.43,1374.42c-5.24,2.83-10.5,5.11-15.76,6.81l-.72,12.57c5.46-1.76,10.91-4.13,16.35-7.06l.14-12.32h0ZM166.69,1381.54l-.72,12.57c-5.38,1.66-10.76,2.74-16.12,3.21l1.3-12.69c5.17-.45,10.36-1.49,15.55-3.09h0ZM118.34,1379.17c-4.8-2.11-9.44-4.79-13.91-8l-2.93,12.2c4.64,3.33,9.45,6.1,14.43,8.29l2.41-12.5h0ZM103.58,1370.57l-2.93,12.2c-4.69-3.45-9.2-7.47-13.53-12.03l3.41-11.77c4.17,4.4,8.53,8.27,13.05,11.6h0ZM89.75,1358.13l-3.41,11.77c-4.36-4.68-8.52-9.91-12.48-15.65l3.86-11.22c3.82,5.53,7.84,10.58,12.04,15.09h0ZM55.1,1299.04l-4.63,9.72c-3.09-7.99-5.95-16.43-8.57-25.28l4.93-8.82c2.53,8.54,5.29,16.68,8.27,24.38h0ZM46.36,1273.06c-2.51-8.6-4.78-17.59-6.82-26.96l-5.19,7.82c2.12,9.71,4.48,19.04,7.08,27.95l4.93-8.82h0ZM39.16,1244.34l-5.19,7.82c-2.09-9.74-3.93-19.86-5.51-30.32l5.38-6.74c1.53,10.08,3.3,19.84,5.31,29.24h0ZM27.43,1144.48l-5.6,4.34c-.42-11.57-.57-23.39-.45-35.44l5.62-3.07c-.12,11.61.03,23.01.44,34.17h0ZM27.02,1108.14c.15-11.5.55-23.2,1.23-35.08l-5.57,1.77c-.7,12.31-1.12,24.45-1.27,36.38l5.62-3.07h0ZM28.37,1070.85l-5.57,1.77c.72-12.15,1.71-24.46,2.98-36.91l5.46-.45c-1.22,12.01-2.18,23.88-2.87,35.6h0ZM42.81,956.84c2.29-11.83,4.8-23.44,7.51-34.82l-4.79-3.5c-2.81,11.8-5.41,23.84-7.79,36.11l5.07,2.21h0ZM50.83,919.87l-4.79-3.5c2.88-11.95,5.97-23.64,9.26-35.05l4.46,4.75c-3.17,11-6.15,22.27-8.93,33.8h0ZM60.36,884l-4.46-4.75c3.35-11.5,6.9-22.71,10.63-33.59l4.08,5.95c-3.6,10.49-7.02,21.3-10.25,32.39h0ZM97.05,786.46l-3.19-8.16c4.52-9.44,9.18-18.48,13.97-27.08l2.69,9.13c-4.62,8.29-9.12,17.01-13.47,26.11h0ZM111.39,758.79c4.64-8.25,9.4-16.07,14.26-23.44l-2.16-10c-5.04,7.64-9.98,15.76-14.79,24.31l2.69,9.13h0ZM126.56,733.97l-2.16-10c5.05-7.58,10.2-14.69,15.44-21.29l1.61,10.76c-5.05,6.37-10.02,13.22-14.89,20.53h0ZM175.63,678.9l-.45-11.93c5.43-4.18,10.9-7.8,16.39-10.84l-.14,12.32c-5.3,2.93-10.57,6.43-15.8,10.45h0ZM192.43,667.9c5.24-2.83,10.5-5.11,15.76-6.81l.72-12.57c-5.46,1.76-10.91,4.12-16.35,7.06l-.14,12.32h0ZM209.17,660.79l.72-12.57c5.38-1.66,10.76-2.74,16.12-3.21l-1.3,12.69c-5.17.45-10.36,1.49-15.55,3.09h0ZM243.55,643.42c87.28,14.42,133.13,195.24,102.42,403.86-30.72,208.62-126.38,366.05-213.66,351.63-87.28-14.42-133.13-195.24-102.42-403.87,30.72-208.62,126.38-366.05,213.66-351.63h0ZM241.03,660.54c83.32,13.77,127.1,186.39,97.77,385.55-29.33,199.16-120.65,349.46-203.97,335.69-83.32-13.77-127.1-186.39-97.77-385.55,29.33-199.16,120.65-349.46,203.97-335.69Z"/>
        <path class="cls-2" d="M258.24,681.18l-.28,1.9c-.16-.03-.36-.09-.56-.09-.58-.03-1.06.56-1.38,2.32-.06.32-.11.66-.17,1.03-4.02,27.31-7.88,53.54-11.9,80.85-.25,1.72-.1,2.71.5,2.81l.89.15-.28,1.9-8.36-1.38.28-1.9,1.18.19c.57.09,1.18-.44,1.47-2.37,3.98-27,7.95-53.99,11.93-80.99.34-2.34.21-3.53-.59-3.66l-.85-.14.28-1.9c2.49.41,5.35.88,7.85,1.3h0ZM227.86,676.16c-.1.65-.2,1.29-.3,1.94l-.72-.12c-1.17-.26-1.33,1.76-1.38,4.37l.07,26.62c2.65-8.28,5.3-16.56,7.95-24.84.24-.73.43-1.37.59-1.93.64-2.27.48-2.95-.27-3.07l-.45-.07.29-1.94,5.7.94-.29,1.94-1.18-.2c-.94-.16-1.32.64-2.09,3.05l-10.23,31.99c.04,15.22.08,30.45.12,45.68,0,3.37-.13,6.3,1.17,6.51l.21.03-.29,1.94-9.18-1.52c.1-.65.2-1.29.3-1.94l1.26.21c1.43.24,1.43-2.21,1.42-5.43l-.05-29.73c-3.25,10.16-6.5,20.32-9.75,30.47-.9,2.8-.56,3.21.4,3.37l2.02.33c-.1.65-.19,1.29-.29,1.94l-7.75-1.28.29-1.94.86.14c1.23.2,1.71.21,2.78-3.14l11.45-35.78c-.02-14.04-.05-28.09-.07-42.13,0-5.06-.67-5.71-2.22-6.02l.29-1.95,9.36,1.55h0ZM249.15,679.67l-.28,1.9c-.16-.03-.36-.09-.56-.09-.58-.03-1.06.56-1.38,2.32-.06.32-.11.66-.17,1.03-4.02,27.31-7.88,53.54-11.9,80.85-.25,1.72-.1,2.71.5,2.81l.89.15-.28,1.9-8.36-1.38.28-1.9c.39.06.78.13,1.18.19.57.09,1.18-.44,1.47-2.37,3.98-27,7.95-53.99,11.93-80.99.34-2.34.21-3.53-.59-3.66l-.85-.14.28-1.9c2.49.41,5.35.88,7.85,1.3Z"/>
        <path class="cls-2" d="M306.25,741.09c-.21.53-.43,1.05-.64,1.58-.11-.21-.24-.51-.39-.75-.41-.71-.9-.68-1.53.71-.11.25-.23.53-.36.84-9.2,22.71-18.03,44.51-27.22,67.22-.58,1.43-.69,2.6-.28,3.41l.62,1.2-.64,1.58-5.77-11.19c.21-.53.43-1.05.64-1.58.27.52.54,1.05.81,1.57.39.76.96.94,1.61-.66,9.09-22.45,18.18-44.89,27.27-67.34.79-1.95.96-3.3.41-4.37-.11-.22-.48-.93-.59-1.14.21-.53.43-1.05.64-1.58,1.72,3.34,3.69,7.16,5.41,10.5Z"/>
        <path class="cls-2" d="M337.45,868.87c-.28.28-.55.56-.83.84-.03-.34-.06-.79-.11-1.21-.14-1.2-.5-1.73-1.28-1.08-.14.12-.29.26-.45.42-11.91,12.02-23.34,23.56-35.25,35.58-.75.76-1.1,1.8-.98,3.1l.17,1.93-.83.84-1.63-18c.28-.28.55-.56.83-.84.08.84.15,1.69.23,2.53.11,1.22.48,2.07,1.32,1.22,11.77-11.88,23.54-23.76,35.31-35.65,1.02-1.03,1.46-2.19,1.3-3.9-.03-.35-.14-1.49-.17-1.84.28-.28.55-.56.83-.84.49,5.37,1.04,11.52,1.53,16.89h0ZM339.23,888.43c-.49-5.36-1.05-11.52-1.53-16.89-.28.28-.55.56-.83.84.03.35.13,1.49.17,1.84.16,1.72-.28,2.87-1.3,3.9-11.77,11.88-23.54,23.76-35.31,35.65-.84.85-1.21,0-1.33-1.22-.08-.84-.15-1.69-.23-2.53-.28.28-.55.56-.83.84l1.63,18,.83-.84-.18-1.93c-.12-1.3.23-2.34.98-3.1,11.91-12.02,23.34-23.56,35.25-35.58.16-.16.31-.31.45-.42.78-.65,1.14-.11,1.28,1.08.05.42.08.87.11,1.21.28-.28.55-.56.83-.84Z"/>
        <path class="cls-2" d="M204.49,1341.87l-.12-1.75c.36-.36.72-.73,1.08-1.09.09-.09.17-.17.23-.25.28-.35.4-.84.44-1.62.01-.27.02-.59.03-.96l1.01-86.31,1.88-1.9c5.06,22.6,10.12,45.2,15.18,67.81.71,3.15.88,3.38,2.3,1.95.24-.25.49-.49.73-.74.05.57.1,1.14.16,1.71-3.13,3.16-6.26,6.31-9.38,9.47-.05-.57-.1-1.14-.15-1.72.36-.37,1.05-.92,1.3-1.72.38-1.19-.08-3.08-.29-4.03l-10.18-45.46c-.22,19.1-.45,38.2-.67,57.3,0,.81-.01,1.46,0,1.96.04,1.33.26,1.59.73,1.14.11-.11.24-.24.4-.4.19-.19.37-.37.56-.56.04.58.08,1.17.12,1.75-1.79,1.81-3.58,3.61-5.36,5.42Z"/>
        <path class="cls-2" d="M130.84,1363.33l.32-1.9,1.04.17c.09.01.16.02.23.02.29-.02.49-.38.7-1.11.07-.25.15-.56.24-.93l20.54-85.48,1.81.3c-1.5,28.63-3,57.26-4.51,85.89-.21,3.98-.13,4.43,1.23,4.66l.7.12-.28,1.9-9.01-1.49c.09-.63.19-1.27.28-1.9.35.06.97.3,1.34-.2.55-.75.65-3.18.71-4.38l3.02-57.58c-4.55,18.92-9.09,37.83-13.64,56.75-.19.8-.34,1.45-.45,1.97-.28,1.38-.18,1.9.27,2,.1.02.23.04.38.07l.53.09c-.11.63-.21,1.26-.32,1.9l-5.15-.85h0ZM122.13,1361.89c.09-.63.19-1.27.28-1.9.16.03.36.09.56.09.58.03,1.06-.56,1.38-2.32.06-.32.11-.66.17-1.03,4.02-27.31,7.88-53.54,11.9-80.85.25-1.72.1-2.71-.5-2.8l-.9-.15.28-1.9,8.36,1.38-.28,1.9-1.17-.19c-.57-.09-1.18.44-1.47,2.37-3.98,27-7.95,53.99-11.93,80.99-.34,2.34-.21,3.53.59,3.66l.85.14-.28,1.9c-2.49-.41-5.35-.88-7.85-1.3Z"/>
        <path class="cls-2" d="M70.96,1303.86l.67-1.53c.24.46.48.93.72,1.39.06.12.11.21.16.28.21.31.44.19.76-.3.11-.17.24-.39.39-.65l34.57-61.74,1.25,2.42c-7.66,26.98-15.33,53.97-22.99,80.95-1.07,3.76-1.11,4.29-.17,6.12.16.31.32.62.48.94-.21.53-.43,1.05-.64,1.58-2.07-4.02-4.14-8.03-6.21-12.05.21-.53.43-1.05.64-1.58.24.47.64,1.44,1.02,1.37.57-.11,1.21-2.43,1.53-3.56l15.41-54.27c-7.65,13.66-15.3,27.33-22.95,40.99-.32.58-.58,1.06-.78,1.45-.52,1.06-.57,1.7-.26,2.32.07.14.16.31.26.52.12.24.25.48.37.71-.22.51-.44,1.02-.67,1.53-1.18-2.3-2.37-4.59-3.55-6.89h0ZM58.7,1280.09c1.72,3.34,3.69,7.16,5.41,10.5.21-.53.43-1.05.64-1.58-.11-.22-.48-.93-.59-1.14-.55-1.07-.38-2.42.41-4.37,9.09-22.45,18.18-44.89,27.27-67.34.65-1.6,1.22-1.42,1.61-.66.27.52.54,1.05.81,1.57.21-.53.43-1.05.64-1.58l-5.77-11.19-.64,1.58.62,1.2c.42.81.3,1.98-.28,3.41-9.2,22.71-18.03,44.52-27.22,67.22-.12.3-.24.59-.36.84-.64,1.39-1.12,1.42-1.53.71-.14-.25-.28-.54-.39-.75-.21.53-.43,1.05-.64,1.58h0ZM65.09,1292.47c1.72,3.34,3.69,7.16,5.41,10.5.21-.53.43-1.05.64-1.58-.11-.22-.48-.93-.59-1.14-.55-1.07-.38-2.42.41-4.37,9.09-22.45,18.18-44.89,27.27-67.34.65-1.6,1.22-1.42,1.61-.66.27.52.54,1.05.81,1.57.21-.53.43-1.05.64-1.58l-5.77-11.19-.64,1.58.62,1.2c.42.81.3,1.98-.28,3.41-9.2,22.71-18.03,44.51-27.22,67.22-.12.31-.24.59-.36.84-.64,1.39-1.12,1.42-1.53.71-.15-.25-.28-.54-.39-.75-.21.53-.43,1.05-.64,1.58Z"/>
        <path class="cls-2" d="M38.74,1177.2l.84-.76c.07.74.14,1.49.2,2.23.02.19.03.34.05.47.08.56.28.71.62.59.12-.04.26-.11.43-.2l39.34-21.46.35,3.89c-11.77,18.11-23.54,36.22-35.32,54.32-1.64,2.52-1.8,3.01-1.53,5.94.05.5.09,1.01.14,1.51-.28.28-.55.56-.83.84-.59-6.46-1.17-12.92-1.76-19.39.28-.28.55-.55.83-.83.07.75.13,2.2.43,2.58.44.56,1.44-1.03,1.93-1.79l23.68-36.42c-8.71,4.75-17.41,9.5-26.12,14.25-.37.2-.67.38-.9.54-.62.45-.8,1.05-.72,2.02.02.23.04.5.07.83.03.38.07.77.1,1.15-.28.25-.56.51-.84.76-.33-3.69-.67-7.39-1-11.08h0ZM33.58,1120.33c.28-.28.55-.56.83-.84.03.34.06.79.11,1.21.14,1.2.5,1.73,1.28,1.08.14-.12.29-.26.45-.42,11.91-12.02,23.34-23.56,35.25-35.58.75-.76,1.1-1.8.98-3.1l-.17-1.93.83-.84,1.63,18c-.28.28-.55.56-.83.84-.08-.84-.15-1.69-.23-2.53-.11-1.22-.49-2.07-1.33-1.23-11.77,11.88-23.54,23.76-35.31,35.65-1.02,1.03-1.46,2.19-1.3,3.9.03.35.14,1.49.17,1.84-.28.28-.55.56-.83.84-.49-5.37-1.04-11.53-1.53-16.89h0ZM35.35,1139.8c.49,5.36,1.04,11.52,1.53,16.89.28-.28.55-.56.83-.84-.03-.35-.13-1.49-.17-1.84-.16-1.72.28-2.87,1.3-3.9,11.77-11.88,23.54-23.76,35.31-35.65.84-.85,1.21,0,1.33,1.23.08.84.15,1.69.23,2.53.28-.28.55-.56.83-.84l-1.63-18-.83.84.17,1.93c.12,1.3-.23,2.34-.98,3.1-11.91,12.02-23.34,23.56-35.25,35.58-.16.16-.31.31-.45.42-.78.65-1.14.11-1.28-1.08-.05-.42-.08-.87-.11-1.21-.28.28-.55.56-.83.84h0ZM37.08,1158.89c.49,5.37,1.05,11.52,1.53,16.89.28-.28.55-.56.83-.84-.03-.35-.13-1.49-.17-1.84-.16-1.72.28-2.87,1.3-3.9,11.77-11.88,23.54-23.76,35.31-35.65.84-.85,1.21,0,1.33,1.23.08.84.15,1.69.23,2.53.28-.28.55-.56.83-.84l-1.63-18-.83.84.17,1.93c.12,1.3-.23,2.34-.98,3.1-11.91,12.02-23.34,23.56-35.25,35.58-.16.16-.31.31-.45.42-.78.65-1.14.11-1.28-1.08-.05-.42-.08-.87-.11-1.21-.28.28-.55.56-.83.84Z"/>
        <path class="cls-2" d="M45.51,989.36c.27.05.54.11.81.16l-.25,1.72c-.44,2.81.44,2.64,1.63,2.02l12.23-7.51c-3.07-3.92-6.13-7.85-9.2-11.77-.27-.35-.51-.63-.72-.85-.87-.88-1.22-.32-1.48,1.47l-.16,1.08-.81-.13,2.01-13.63.81.13c-.07.5-.34,2.32-.42,2.82-.33,2.25-.07,2.91.82,4.06l11.85,15.16c7-4.3,13.99-8.59,20.99-12.89,1.55-.95,2.85-1.43,3.31-4.54l.07-.5.81.13-3.23,21.95c-.27-.05-.54-.11-.81-.16.1-.71.34-2.3.44-3.01.5-3.42-.62-2.74-2.1-1.84l-13.65,8.33c3.76,4.81,7.52,9.64,11.29,14.45,1.04,1.33,1.32.42,1.65-1.86.24-1.61.47-3.21.71-4.82.27.05.54.1.81.15l-2.73,18.53-.81-.13.3-2.06c.43-2.94.57-4.07-.67-5.65l-13.25-16.95c-6.45,3.93-12.9,7.87-19.35,11.81-2.32,1.42-2.81,3.14-3.37,6.86l-.81-.13,3.29-22.38h0ZM41.68,1015.35l.8.13c-.06.38-.14.87-.2,1.34-.17,1.36-.04,2.32.68,2.59.13.05.27.08.43.1,11.43,1.89,22.4,3.7,33.82,5.59.72.12,1.21-.52,1.43-1.96.16-1.09.32-2.18.48-3.28l.8.13c-1.04,7.04-2.07,14.08-3.11,21.12l-.8-.13.41-2.81c.2-1.36.12-2.65-.68-2.78-11.29-1.87-22.59-3.73-33.88-5.6-.98-.16-1.56.49-1.84,2.39-.06.39-.24,1.65-.3,2.04l-.8-.13c.88-5.96,1.88-12.8,2.76-18.75Z"/>
        <path class="cls-2" d="M87.66,831.88c.18.37.37.74.55,1.11-.09.23-.48,1.2-.58,1.43-.97,2.3-.29,3.16.72,3.93l10.63,6.8c-1.33-7.54-2.67-15.07-4-22.61-.12-.67-.23-1.23-.33-1.7-.43-1.9-.81-1.75-1.42-.26l-.36.9-.56-1.09,4.59-11.33.56,1.09c-.17.42-.78,1.93-.95,2.35-.76,1.87-.72,2.84-.33,5.04l5.15,29.11c6.08,3.89,12.16,7.77,18.23,11.66,1.34.86,2.4,1.91,3.45-.68l.17-.42.56,1.09-7.39,18.25c-.18-.37-.37-.74-.55-1.11.24-.59.77-1.91,1.01-2.5,1.15-2.84.18-3.48-1.1-4.31l-11.85-7.64c1.63,9.24,3.26,18.5,4.9,27.74.45,2.55.86,1.97,1.63.07.54-1.33,1.08-2.67,1.62-4.01.18.37.37.73.55,1.1l-6.24,15.4-.56-1.09.69-1.71c.99-2.44,1.35-3.42.81-6.46l-5.76-32.56c-5.6-3.61-11.2-7.22-16.8-10.83-2.02-1.3-2.76-.14-4.03,2.93l-.56-1.09,7.53-18.61Z"/>
        <path class="cls-2" d="M153.33,718.66c.05.59.1,1.17.15,1.76-.12.12-.63.63-.75.76-1.23,1.18-.93,2.84-.38,4.79l6.18,19.28c.76-9.13,1.52-18.26,2.28-27.39.07-.81.12-1.51.15-2.09.13-2.41-.19-2.71-.97-1.92l-.47.48-.16-1.75,5.94-6,.16,1.75c-.22.22-1.01,1.02-1.23,1.24-.98.99-1.18,2.01-1.4,4.67l-2.93,35.26c3.53,11.03,7.07,22.06,10.6,33.09.78,2.44,1.31,4.74,2.67,3.37l.22-.22.16,1.75-9.57,9.66c-.05-.59-.1-1.17-.15-1.76.31-.31,1-1.01,1.31-1.32,1.49-1.51.93-3.28.18-5.62l-6.87-21.57c-.93,11.2-1.87,22.4-2.8,33.6-.26,3.09.18,2.99,1.17,1.98.7-.71,1.4-1.41,2.1-2.12.05.59.1,1.17.15,1.75l-8.08,8.15-.16-1.75.9-.91c1.28-1.29,1.77-1.86,2.07-5.54l3.28-39.44c-3.25-10.19-6.49-20.37-9.74-30.56-1.17-3.67-1.98-3.38-3.61-1.79l-.16-1.75,9.76-9.85h0ZM175.51,696.27c-2.6,2.62-5.58,5.63-8.18,8.25.05.57.1,1.14.16,1.71.17-.17.72-.73.89-.9.83-.84,1.24-.14,1.43,1.97,2.21,24.31,4.41,48.63,6.61,72.94.16,1.73-.34,2.85-.93,3.45-.41.41-.82.82-1.22,1.24.05.57.1,1.14.16,1.71,3.07-3.1,6.14-6.2,9.21-9.3-.05-.57-.1-1.14-.15-1.71-.48.48-.95.96-1.43,1.44-.63.63-1.01.1-1.15-1.45-2.23-24.6-4.37-48.22-6.6-72.81-.03-.33-.05-.64-.07-.94-.08-1.66.26-2.64.85-3.3.2-.23.42-.42.59-.59-.05-.57-.1-1.14-.16-1.71Z"/>
        <path class="cls-2" d="M295.35,1192.79c-.18-.35-.37-.71-.55-1.06.13-.31.3-.71.45-1.11.44-1.17.56-2.29.1-3.4-.08-.2-.18-.4-.29-.61-7.88-15.29-15.46-29.97-23.34-45.27-.5-.96-1-.9-1.49.29l-.72,1.78-.55-1.06,6.73-16.61c.18.35.37.71.55,1.06-.31.78-.63,1.56-.95,2.34-.46,1.13-.7,2.52-.14,3.6,7.79,15.12,15.59,30.23,23.38,45.34.68,1.31,1.25,1.34,1.89-.24.13-.32.56-1.37.69-1.7.18.36.37.71.55,1.06-2.01,4.95-4.31,10.64-6.32,15.59h0ZM272.3,1249.7c2.01-4.95,4.31-10.64,6.31-15.59-.18-.35-.37-.71-.55-1.06-.13.32-.56,1.37-.69,1.7-.64,1.59-1.22,1.55-1.89.24-7.79-15.12-15.59-30.23-23.38-45.35-.56-1.08-.32-2.47.14-3.59.31-.78.63-1.56.95-2.34-.18-.35-.37-.71-.55-1.06l-6.73,16.61.55,1.06.72-1.78c.48-1.2.99-1.25,1.49-.29,7.88,15.29,15.46,29.98,23.34,45.27.11.2.2.4.29.61.46,1.11.34,2.23-.1,3.4-.15.41-.33.8-.45,1.11.18.36.37.71.55,1.06h0ZM279.98,1230.73c2.01-4.95,4.31-10.64,6.31-15.59-.18-.36-.37-.71-.55-1.06-.13.32-.56,1.37-.69,1.7-.64,1.59-1.22,1.55-1.89.24-7.79-15.12-15.59-30.23-23.38-45.35-.56-1.08-.32-2.47.14-3.59.32-.78.63-1.56.95-2.34-.18-.35-.37-.71-.55-1.06l-6.73,16.61.55,1.06.72-1.78c.48-1.2.99-1.25,1.49-.29,7.89,15.29,15.46,29.97,23.34,45.27.11.21.2.41.29.61.46,1.11.34,2.23-.1,3.4-.15.41-.33.8-.45,1.11.18.35.37.71.55,1.06h0ZM287.66,1211.76c2.01-4.95,4.31-10.64,6.31-15.59-.18-.36-.37-.71-.55-1.07-.13.32-.56,1.38-.69,1.7-.64,1.59-1.21,1.56-1.89.25-7.79-15.12-15.59-30.23-23.38-45.35-.56-1.08-.32-2.47.14-3.59.31-.78.63-1.56.95-2.34-.18-.35-.37-.71-.55-1.06l-6.73,16.61.55,1.06.72-1.78c.48-1.2.99-1.25,1.49-.29,7.88,15.29,15.46,29.97,23.34,45.27.11.21.2.4.29.61.46,1.11.34,2.23-.1,3.4-.15.41-.33.8-.45,1.11.18.35.37.71.55,1.06Z"/>
        <path class="cls-2" d="M333.35,1032.59l-.8-.13c.06-.38.14-.87.2-1.34.17-1.36.04-2.32-.68-2.59-.13-.05-.27-.08-.43-.11-11.43-1.89-22.4-3.7-33.82-5.59-.72-.12-1.21.52-1.43,1.96l-.32,2.14-.8-.13,2.94-19.98.8.13-.41,2.81c-.2,1.36-.12,2.65.68,2.78,11.3,1.87,22.59,3.73,33.88,5.6.98.16,1.56-.49,1.84-2.39l.3-2.04.8.13c-.88,5.96-1.88,12.8-2.76,18.75h0ZM326.92,1076.21l-.8-.13c.06-.38.14-.87.2-1.34.17-1.36.04-2.32-.68-2.59-.13-.05-.27-.08-.43-.1-11.43-1.89-22.4-3.7-33.82-5.59-.72-.12-1.21.52-1.43,1.96l-.32,2.14-.8-.13,2.94-19.98.8.13-.41,2.81c-.2,1.36-.12,2.65.68,2.78,11.3,1.87,22.59,3.73,33.88,5.6.98.16,1.56-.49,1.84-2.39l.3-2.04.8.13c-.88,5.96-1.88,12.8-2.76,18.75h0ZM330.15,1054.31l-.8-.13c.06-.38.14-.87.2-1.34.17-1.36.03-2.32-.68-2.59-.13-.05-.27-.08-.43-.1-11.43-1.89-22.4-3.7-33.82-5.59-.72-.12-1.21.52-1.43,1.96l-.32,2.14-.8-.13,2.94-19.98.8.13-.41,2.81c-.2,1.36-.12,2.65.68,2.78,11.3,1.87,22.59,3.73,33.88,5.6.98.16,1.56-.49,1.84-2.39l.3-2.04.8.13c-.88,5.96-1.88,12.8-2.76,18.75Z"/>
        <path class="cls-2" d="M229,1218.06c-4.29-22.6-6.45-31.98-6.39-60.05.05-21.15-2.19-33.37-11.84-33.84-2.2-10.29-1.91-14.53-.15-24.62-4.61-1.56-5.78-4.66-7.84-15.78l-9.67-48.89c3.58-7.34,5.13-18.37,3.48-26.42-1.9-9.25-7.3-11.08-12.07-4.08-4.77,7-7.1,20.18-5.21,29.44,1.65,8.05,5.96,10.48,10.2,6.36l10.21,48.1c2.4,10.62,2.75,14.93.76,26.16,4.12,1.47,5.61,3.1,7.68,13.59-5.04,22.03-2.39,33.65,4.29,44.92,8.88,14.95,10.67,24.87,15.49,46.69.56,2.72,1.64,1.13,1.08-1.58ZM185.33,1028.64c-1.5-2.24-1.55-7.41-.1-11.55,1.44-4.14,3.83-5.67,5.33-3.43,1.5,2.24,1.55,7.41.1,11.55-1.44,4.14-3.83,5.67-5.33,3.43Z"/>
        <g>
          <path class="cls-2" d="M185.14,1028.49c-.4-.73-.68-1.68-.83-2.77l-40.5,149.29c-2.91,11.11-4.27,14.55-8.68,18.46.71,8.12.6,11.77-2.36,22.22-8.98,5.69-12.15,17.9-14.01,36.89-2.47,25.2-5.31,34.81-11.32,57.47-.76,2.73.1,3.57.86.84,6.43-22.25,8.98-32.14,18.54-50.43,7.21-13.78,10.71-25.67,8.02-42.73,2.85-10.56,4.38-12.83,8.33-16.4-.83-9.02-.12-13.08,3.06-23.94l41.76-147.96c-1.05.69-2.11.43-2.88-.94Z"/>
          <path class="cls-2" d="M200.28,959.81c-.37-1.45-1.71-2.62-2.75-2.07-.47.25-.93.84-.95,2.06,0,.56.06,1.24.19,2.12,1.32,9.33.21,17.05-2.75,27.94l-6.28,23.14c1.1-.81,2.22-.59,3.02.85.41.74.69,1.71.84,2.82l6.46-22.87c3.05-10.8,5.77-16.96,10.6-20.3.45-.31.79-.6,1.03-.93.52-.73.52-1.77.35-2.64-.35-1.91-1.63-3.29-2.48-3.02,2.43-3.95,3.64-10.49,3.11-15.33-.55-5.04-3-7.41-5.51-5.36-2.41,1.97-4.55,7.56-4.89,13.59Z"/>
        </g>
      </g>
    </g>
  </g>
</svg>